<svg width="26" height="26" viewBox="0 0 26 26" fill="none" xmlns="http://www.w3.org/2000/svg">
<mask id="mask0_653_100" style="mask-type:alpha" maskUnits="userSpaceOnUse" x="0" y="0" width="26" height="26">
<rect width="26" height="26" fill="#D9D9D9"/>
</mask>
<g mask="url(#mask0_653_100)">
<path d="M7.41489 23.2706C6.61503 23.2706 5.93659 22.9921 5.37958 22.4351C4.82257 21.8781 4.54406 21.1997 4.54406 20.3998V6.66856H3.10864V3.79772H9.39793V2.3623H16.5715V3.79772H22.8914V6.66856H21.456V20.3998C21.456 21.1997 21.1775 21.8781 20.6205 22.4351C20.0634 22.9921 19.385 23.2706 18.5851 23.2706H7.41489ZM18.5851 6.66856H7.41489V20.3998H18.5851V6.66856ZM9.47458 18.4013H11.9933V8.65133H9.47458V18.4013ZM14.0067 18.4013H16.5255V8.65133H14.0067V18.4013Z" fill="white"/>
</g>
</svg>
