<svg width="826" height="391" viewBox="0 0 826 391" fill="none" xmlns="http://www.w3.org/2000/svg">
<g filter="url(#filter0_f_15_429)">
<path d="M138.322 258.019C137.711 258.089 137.267 258.635 137.337 259.246L147.419 351.899C147.459 352.243 147.66 352.524 147.927 352.696C147.961 352.996 148.118 353.282 148.386 353.465C148.619 353.63 148.896 353.688 149.151 353.659C149.362 353.635 149.563 353.522 149.727 353.38L243.977 342.901C244.589 342.831 245.031 342.274 244.961 341.663C244.892 341.052 244.346 340.608 243.724 340.679L151.506 350.925L152.599 349.36C152.958 348.857 152.832 348.152 152.32 347.805C151.806 347.447 151.111 347.572 150.765 348.084L149.459 349.955L143.749 297.532L146.606 297.611C146.606 297.611 146.717 297.598 146.761 297.593C147.306 297.531 147.738 297.076 147.752 296.512C147.771 295.891 147.285 295.383 146.664 295.364L143.571 295.279C143.571 295.279 143.526 295.284 143.504 295.287L139.557 258.981C139.488 258.37 138.942 257.926 138.329 257.985L138.322 258.019Z" fill="#D90368"/>
<path d="M156.336 293.921L152.908 294.752C152.306 294.9 151.936 295.505 152.084 296.107C152.215 296.666 152.74 297.022 153.295 296.959C153.34 296.954 153.384 296.949 153.429 296.944L156.856 296.113C157.458 295.965 157.828 295.36 157.68 294.758C157.533 294.156 156.928 293.786 156.326 293.934L156.336 293.921Z" fill="#D90368"/>
<path d="M165.218 291.972L163.534 292.604C162.951 292.817 162.665 293.468 162.877 294.041C163.057 294.538 163.551 294.819 164.051 294.762C164.14 294.752 164.229 294.741 164.314 294.698L166.008 294.065C166.592 293.852 166.877 293.201 166.666 292.628C166.453 292.045 165.801 291.759 165.229 291.971L165.218 291.972Z" fill="#D90368"/>
<path d="M175.528 291.199L173.795 291.397C173.184 291.467 172.741 292.024 172.811 292.635C172.881 293.246 173.438 293.689 174.049 293.619L175.782 293.421C176.393 293.351 176.836 292.794 176.766 292.183C176.696 291.572 176.139 291.129 175.528 291.199Z" fill="#D90368"/>
<path d="M185.739 292.407C185.739 292.407 185.772 292.403 185.794 292.401C186.383 292.333 186.819 291.811 186.785 291.218C186.737 290.605 186.211 290.136 185.597 290.183L184.291 290.276C183.689 290.323 183.209 290.85 183.258 291.475C183.305 292.088 183.832 292.557 184.456 292.508L185.762 292.415L185.739 292.407Z" fill="#D90368"/>
<path d="M195.488 289.965C195.257 289.62 194.855 289.452 194.397 289.482C193.787 289.563 193.357 290.129 193.45 290.749C193.551 291.435 194.044 292.009 194.746 292.244C195.027 292.336 195.311 292.36 195.589 292.328C196 292.281 196.385 292.102 196.665 291.8C197.098 291.356 197.085 290.649 196.642 290.215C196.325 289.903 195.865 289.82 195.476 289.966L195.488 289.965Z" fill="#D90368"/>
<path d="M198.523 297.62C198.453 297.009 197.896 296.566 197.285 296.636C196.674 296.706 196.232 297.263 196.301 297.874L196.748 301.784C196.818 302.395 197.375 302.838 197.986 302.768C198.597 302.698 199.04 302.141 198.97 301.53L198.523 297.62Z" fill="#D90368"/>
<path d="M201.465 320.209C201.406 319.596 200.859 319.141 200.247 319.2C199.672 319.288 199.179 319.806 199.238 320.418L199.404 322.166C199.463 322.778 200.01 323.233 200.622 323.175L200.644 323.172C201.244 323.104 201.688 322.558 201.631 321.957L201.465 320.209Z" fill="#D90368"/>
<path d="M200.227 332.719C200.329 333.315 200.87 333.714 201.459 333.647C201.481 333.644 201.492 333.643 201.514 333.641C202.122 333.537 202.54 332.961 202.437 332.354L202.017 329.768C201.914 329.161 201.336 328.732 200.73 328.846C200.123 328.949 199.705 329.526 199.808 330.133L200.227 332.719Z" fill="#D90368"/>
<path d="M201.316 341.26C201.525 341.709 201.991 341.948 202.458 341.895C202.569 341.882 202.689 341.846 202.807 341.799C203.363 341.544 203.613 340.874 203.347 340.319L202.765 339.069C202.51 338.513 201.841 338.274 201.285 338.529C200.729 338.784 200.479 339.454 200.745 340.008L201.327 341.259L201.316 341.26Z" fill="#D90368"/>
<path d="M156.129 343.419C156.348 343.563 156.612 343.612 156.846 343.585C157.168 343.548 157.473 343.367 157.664 343.064L159.159 340.687C159.493 340.165 159.336 339.474 158.802 339.141C158.282 338.818 157.589 338.964 157.256 339.498L155.761 341.874C155.427 342.397 155.585 343.088 156.118 343.421L156.129 343.419Z" fill="#D90368"/>
<path d="M170.155 324.935C170.403 325.132 170.693 325.211 170.982 325.178C171.271 325.145 171.536 325.002 171.723 324.767L173.269 322.834C173.653 322.352 173.584 321.651 173.09 321.268C172.607 320.884 171.906 320.953 171.523 321.447L169.977 323.379C169.594 323.862 169.663 324.563 170.156 324.946L170.155 324.935Z" fill="#D90368"/>
<path d="M165.701 328.404L162.337 333.628C162.002 334.15 162.149 334.842 162.671 335.176C162.901 335.319 163.156 335.38 163.4 335.352C163.722 335.315 164.029 335.145 164.209 334.843L167.573 329.619C167.907 329.097 167.761 328.405 167.239 328.07C166.716 327.736 166.024 327.883 165.69 328.405L165.701 328.404Z" fill="#D90368"/>
<path d="M176.672 315.884C176.92 316.081 177.209 316.149 177.498 316.116C177.787 316.083 178.052 315.94 178.25 315.704L180.562 312.795C180.946 312.312 180.866 311.612 180.383 311.228C179.901 310.845 179.201 310.925 178.817 311.408L176.505 314.317C176.121 314.799 176.201 315.499 176.684 315.883L176.672 315.884Z" fill="#D90368"/>
<path d="M184.638 305.228C184.886 305.424 185.175 305.493 185.464 305.46C185.753 305.427 186.018 305.284 186.216 305.047L188.146 302.632C188.529 302.149 188.449 301.449 187.967 301.066C187.484 300.682 186.784 300.762 186.4 301.245L184.47 303.66C184.087 304.143 184.167 304.843 184.649 305.226L184.638 305.228Z" fill="#D90368"/>
<path d="M192.058 293.834L191.241 294.367C190.729 294.706 190.583 295.398 190.911 295.912C191.156 296.278 191.57 296.456 191.981 296.409C192.148 296.39 192.311 296.338 192.467 296.23L193.284 295.697C193.797 295.357 193.943 294.666 193.603 294.153C193.263 293.64 192.57 293.483 192.057 293.823L192.058 293.834Z" fill="#D90368"/>
<path d="M198.292 280.337C198.44 280.939 199.044 281.298 199.657 281.149L207.029 279.282L201.642 287.787C201.414 288.151 201.409 288.601 201.631 288.97C201.853 289.338 202.27 289.538 202.694 289.501L214.384 288.39L214.406 288.388C215.006 288.319 215.45 287.773 215.392 287.172C215.334 286.56 214.787 286.105 214.174 286.163L204.756 287.06L210.429 278.106C210.677 277.717 210.654 277.225 210.386 276.85C210.118 276.476 209.649 276.304 209.201 276.423L199.106 278.983C198.504 279.131 198.146 279.746 198.292 280.337Z" fill="#D90368"/>
<path d="M127.852 303.58C128.688 303.609 129.635 303.624 130.59 303.515C131.49 303.412 132.409 303.183 133.269 302.725C135.198 301.683 136.507 299.159 135.378 297.059C134.566 295.565 132.665 294.781 130.748 295.146C129.802 295.333 128.948 295.746 128.183 296.239L127.053 287.724C126.972 287.115 126.397 286.719 125.795 286.765C125.185 286.846 124.755 287.413 124.836 288.023L126.773 302.612C126.835 303.156 127.298 303.565 127.852 303.58ZM131.18 297.348C131.972 297.19 133.033 297.417 133.418 298.127C133.888 298.985 133.155 300.251 132.212 300.764C131.246 301.279 130.042 301.372 128.871 301.371L128.526 298.743C129.355 298.119 130.233 297.535 131.18 297.348Z" fill="#D90368"/>
<path d="M206.285 353.229C206.21 352.574 206.034 351.919 205.604 351.304C205.294 350.856 204.702 350.698 204.2 350.936C203.406 350.587 202.477 350.536 201.689 350.829C200.155 351.387 199.269 352.793 198.659 353.955C198.069 355.091 197.386 356.599 197.362 358.267C197.34 360.138 198.247 361.869 199.688 362.661C200.409 363.062 201.226 363.216 202.059 363.121C202.481 363.073 202.907 362.957 203.326 362.785C204.582 362.259 205.668 361.223 206.282 359.994C207 360.272 207.769 360.206 208.431 359.793C208.956 359.463 209.113 358.77 208.784 358.256C208.454 357.731 207.762 357.585 207.236 357.904C207.194 357.931 207.162 357.946 207.043 357.892C206.995 357.864 206.934 357.826 206.885 357.786C207.038 356.272 206.731 354.765 206.274 353.231L206.285 353.229ZM204.531 358.359C204.531 358.359 204.516 358.429 204.498 358.464C204.225 359.43 203.417 360.332 202.482 360.721C202.042 360.906 201.394 361.048 200.781 360.701C199.952 360.244 199.592 359.16 199.604 358.281C199.613 357.087 200.174 355.886 200.644 354.977C201.07 354.174 201.647 353.219 202.468 352.912C202.533 352.893 202.598 352.874 202.676 352.865C202.943 352.835 203.254 352.901 203.485 353.054C203.583 353.122 203.697 353.233 203.7 353.356C203.705 353.693 203.85 353.98 204.088 354.19C204.083 354.438 204.055 354.689 204.041 354.96C204.005 355.437 203.97 355.914 203.977 356.374C203.987 357.049 204.202 357.744 204.541 358.347L204.531 358.359Z" fill="#D90368"/>
<path d="M236.636 300.422C236.143 300.05 235.446 300.153 235.074 300.645C233.738 302.441 232.464 304.297 231.227 306.172C230.858 305.899 230.499 305.614 230.12 305.353L229.485 304.919C227.058 303.272 224.555 301.566 224.248 299.069C224.178 298.458 223.622 298.026 223.011 298.096L223 298.097C222.389 298.167 221.947 298.735 222.028 299.345C222.463 302.852 225.525 304.933 228.234 306.773L228.857 307.197C229.259 307.466 229.642 307.771 230.024 308.054C227.651 311.814 225.46 315.688 223.543 319.689C223.28 320.248 223.513 320.908 224.062 321.182C224.264 321.272 224.47 321.305 224.67 321.282C225.037 321.24 225.382 321.009 225.555 320.652C227.411 316.804 229.506 313.076 231.781 309.451C235.408 312.525 238.46 316.285 240.675 320.499C240.892 320.925 241.345 321.143 241.789 321.092C241.922 321.077 242.053 321.04 242.18 320.969C242.732 320.681 242.936 320.005 242.65 319.463C240.25 314.91 236.939 310.854 232.983 307.558C234.229 305.66 235.502 303.793 236.858 301.972C237.229 301.479 237.126 300.771 236.634 300.411L236.636 300.422Z" fill="#D90368"/>
<path d="M546.102 368.035C544.402 368.176 542.557 367.269 541.299 365.681C540.218 364.322 539.503 362.502 539.127 360.119C538.006 353.031 540.684 345.291 545.947 340.399C546.348 340.02 546.371 339.39 546.001 338.99C545.622 338.59 544.993 338.557 544.592 338.936C538.771 344.349 535.917 352.581 537.158 360.427C537.586 363.153 538.436 365.28 539.732 366.92C541.207 368.78 543.34 369.923 545.437 370.033C545.716 370.048 545.987 370.042 546.258 370.026C546.811 369.985 547.217 369.495 547.176 368.952C547.135 368.4 546.645 367.993 546.102 368.035Z" fill="#00FFFF"/>
<path d="M557.461 347.511L559.221 345.27L559.534 353.247C559.557 353.769 559.966 354.181 560.475 354.208C560.505 354.209 560.535 354.211 560.565 354.213C561.117 354.191 561.552 353.724 561.521 353.171L561.1 342.475C561.082 342.053 560.81 341.688 560.406 341.567C560.003 341.436 559.575 341.573 559.307 341.9L555.873 346.286C555.53 346.719 555.607 347.354 556.04 347.687C556.473 348.03 557.108 347.953 557.441 347.52L557.461 347.511Z" fill="#00FFFF"/>
<path d="M546.07 360.042C546.145 360.517 546.538 360.868 547.007 360.893C547.077 360.896 547.137 360.899 547.208 360.883L571.217 357.314C571.762 357.232 572.14 356.721 572.058 356.176C571.976 355.631 571.465 355.264 570.92 355.336L546.911 358.905C546.366 358.986 545.989 359.497 546.07 360.042Z" fill="#00FFFF"/>
<path d="M560.765 374.871L553.159 375.154C553.507 374.641 553.924 374.133 554.351 373.624L554.512 373.422C555.463 372.27 556.42 371.019 556.763 369.455C557.13 367.802 556.591 365.66 554.875 364.769C553.91 364.268 552.663 364.373 551.697 365.024C550.846 365.6 550.388 366.497 550.48 367.423C550.531 367.977 551.021 368.373 551.575 368.322C552.128 368.271 552.524 367.781 552.473 367.227C552.447 366.965 552.677 366.767 552.813 366.674C553.166 366.432 553.649 366.378 553.951 366.534C554.741 366.945 555.01 368.121 554.813 369.012C554.564 370.141 553.769 371.17 552.967 372.13L552.807 372.322C551.931 373.377 551.022 374.481 550.539 375.868C550.432 376.183 550.484 376.526 550.681 376.787C550.858 377.026 551.131 377.171 551.431 377.186C551.461 377.188 551.491 377.189 551.521 377.191L560.832 376.838C561.384 376.816 561.819 376.348 561.798 375.797C561.777 375.245 561.319 374.8 560.757 374.831L560.765 374.871Z" fill="#00FFFF"/>
<path d="M586.014 363.116L573.396 361.213C572.919 361.148 572.454 361.424 572.3 361.877L567.752 375.107L563.996 364.797C563.803 364.276 563.236 364.006 562.716 364.199C562.195 364.392 561.925 364.958 562.118 365.479L566.846 378.444C566.987 378.822 567.334 379.081 567.733 379.102C567.753 379.103 567.773 379.104 567.793 379.105C568.214 379.097 568.589 378.826 568.729 378.433L573.927 363.314L584.3 364.879C584.315 365.16 584.441 365.437 584.681 365.62C585.114 365.963 585.749 365.886 586.083 365.443L586.652 364.711C586.866 364.432 586.926 364.055 586.793 363.727C586.66 363.4 586.362 363.164 586.015 363.106L586.014 363.116Z" fill="#00FFFF"/>
<path d="M581.107 374.595C581.36 374.348 581.595 374.07 581.802 373.76C582.532 372.617 582.694 371.253 582.233 370.108C581.773 368.962 580.706 368.095 579.381 367.785C578.055 367.476 576.717 367.786 575.803 368.609C575.393 368.978 575.35 369.607 575.729 370.017C576.098 370.427 576.727 370.47 577.137 370.091C577.578 369.704 578.246 369.568 578.939 369.725C579.632 369.881 580.17 370.3 580.392 370.852C580.614 371.395 580.518 372.071 580.136 372.672C579.755 373.262 579.175 373.633 578.592 373.662C578.051 373.684 577.626 374.132 577.638 374.674C577.65 375.215 578.089 375.628 578.618 375.666C579.199 375.657 579.851 376.011 580.293 376.555C580.736 377.099 580.94 377.781 580.839 378.376C580.738 378.972 580.307 379.55 579.707 379.909C579.098 380.268 578.391 380.371 577.821 380.171C577.299 379.993 576.734 380.274 576.557 380.795C576.379 381.317 576.66 381.882 577.181 382.06C577.516 382.177 577.873 382.236 578.232 382.255C579.071 382.299 579.944 382.084 580.729 381.615C581.846 380.952 582.602 379.89 582.814 378.71C583.026 377.529 582.671 376.279 581.843 375.274C581.626 375.013 581.388 374.78 581.138 374.577L581.107 374.595Z" fill="#00FFFF"/>
<path d="M587.544 340.605C587.105 340.943 587.023 341.569 587.36 342.007C594.871 351.754 595.748 365.979 589.515 376.577C589.24 377.054 589.398 377.663 589.874 377.948C590.019 378.036 590.177 378.074 590.327 378.082C590.687 378.101 591.047 377.919 591.244 377.589C597.884 366.301 596.944 351.161 588.957 340.779C588.619 340.341 587.992 340.258 587.554 340.596L587.544 340.605Z" fill="#00FFFF"/>
<path d="M664.534 306.856C668.836 299.281 670.779 290.49 670.537 281.725L693.97 282.092C694.52 282.1 694.974 281.664 694.983 281.103C694.992 280.553 694.567 280.06 693.995 280.09L670.441 279.728C669.693 268.403 665.288 257.287 657.557 249.082L682.846 227.585C683.265 227.227 683.318 226.598 682.959 226.179C682.601 225.76 681.973 225.707 681.553 226.065L656.149 247.656C647.176 238.885 635.72 234.299 623.705 234.271L624.411 215.432C624.44 214.883 624.014 214.42 623.464 214.391L623.444 214.39C622.895 214.361 622.432 214.798 622.413 215.347L621.926 228.47C621.702 228.348 621.443 228.314 621.179 228.391L619.594 228.838C619.065 228.991 618.755 229.546 618.898 230.074C619.016 230.5 619.392 230.781 619.811 230.803C619.921 230.808 620.022 230.794 620.133 230.769L621.719 230.322C621.719 230.322 621.801 230.276 621.853 230.249L621.701 234.296C615.54 234.534 609.266 235.968 603.138 238.641C598.558 240.634 594.407 243.211 590.754 246.234L553.271 204.406C552.902 203.996 552.272 203.963 551.863 204.332C551.453 204.701 551.42 205.33 551.789 205.74L589.244 247.537C580.943 254.993 575.496 264.921 573.842 275.84L573.747 271.739C573.736 271.188 573.278 270.753 572.726 270.764C572.175 270.776 571.741 271.234 571.752 271.785L571.907 278.192L543.671 277.754C543.121 277.746 542.667 278.182 542.658 278.743C542.65 279.283 543.067 279.725 543.606 279.754C543.616 279.754 543.626 279.755 543.646 279.756L573.393 280.212C573.297 282.04 573.291 283.892 573.403 285.76C574.641 306.483 590.851 325.648 611.094 330.323C613.399 330.854 615.735 331.187 618.09 331.34L617.259 353.517C617.23 354.066 617.657 354.529 618.206 354.558L618.226 354.559C618.775 354.588 619.239 354.151 619.257 353.602L620.087 331.445C637.759 331.87 655.786 322.269 664.544 306.856L664.534 306.856ZM662.794 305.863C654.399 320.645 637.094 329.852 620.152 329.445L621.96 280.974L668.546 281.691C668.796 290.116 666.93 298.58 662.794 305.863ZM668.45 279.694L622.375 278.983L654.905 251.336L654.861 260.967C654.863 261.508 655.281 261.94 655.81 261.968C655.83 261.969 655.84 261.97 655.86 261.971C656.411 261.97 656.865 261.523 656.864 260.972L656.908 251.331C663.793 259.072 667.734 269.282 668.46 279.694L668.45 279.694ZM654.62 248.948L622.131 276.566L623.638 236.32C634.063 236.296 645.159 239.731 654.63 248.949L654.62 248.948ZM603.944 240.466C609.16 238.196 615.239 236.651 621.633 236.365L620.044 278.941L619.473 278.931C619.549 278.624 619.497 278.281 619.27 278.029L592.098 247.716C595.594 244.825 599.558 242.369 603.944 240.466ZM590.588 249.019L617.362 278.9L575.559 278.253C576.72 266.968 582.098 256.645 590.588 249.019ZM611.546 328.374C592.134 323.892 576.594 305.514 575.402 285.645C575.297 283.827 575.29 282.034 575.394 280.247L618.578 280.917L615.167 284.864C614.805 285.285 614.852 285.909 615.274 286.271C615.446 286.42 615.662 286.502 615.872 286.513C616.171 286.528 616.468 286.414 616.681 286.165L619.921 282.419L618.165 329.341C615.94 329.185 613.723 328.868 611.546 328.374Z" fill="#00FFFF"/>
<path d="M571.827 260.223L571.663 263.349C571.634 263.898 572.06 264.371 572.609 264.4C573.158 264.428 573.631 264.003 573.66 263.453L573.824 260.328C573.853 259.778 573.427 259.305 572.877 259.277C572.328 259.248 571.855 259.674 571.827 260.223Z" fill="#00FFFF"/>
<path d="M572.457 247.238C571.907 247.209 571.434 247.635 571.406 248.184L571.269 250.791C571.24 251.34 571.666 251.813 572.215 251.842C572.765 251.871 573.238 251.445 573.266 250.896L573.403 248.289C573.432 247.74 573.006 247.267 572.457 247.238Z" fill="#00FFFF"/>
<path d="M572.178 233.635C571.626 233.656 571.201 234.125 571.222 234.676L571.435 239.394C571.458 239.916 571.868 240.318 572.377 240.345C572.407 240.346 572.437 240.348 572.477 240.35C573.029 240.329 573.454 239.86 573.433 239.308L573.219 234.591C573.198 234.039 572.73 233.614 572.178 233.635Z" fill="#00FFFF"/>
<path d="M579.338 227.882C578.803 227.783 578.274 228.136 578.175 228.682C578.076 229.227 578.43 229.747 578.975 229.845L582.605 230.516C582.605 230.516 582.695 230.521 582.735 230.523C583.224 230.548 583.673 230.201 583.769 229.706C583.868 229.16 583.514 228.641 582.969 228.542L579.339 227.872L579.338 227.882Z" fill="#00FFFF"/>
<path d="M591.566 229.013C591.013 229.064 590.616 229.554 590.668 230.107C590.721 230.611 591.122 230.982 591.612 231.008C591.662 231.01 591.712 231.013 591.762 231.006L594.923 230.691C595.476 230.639 595.872 230.15 595.821 229.596C595.77 229.043 595.27 228.646 594.727 228.698L591.566 229.013Z" fill="#00FFFF"/>
<path d="M601.344 229.695L602.897 230.247C602.995 230.282 603.085 230.297 603.184 230.302C603.614 230.325 604.028 230.066 604.18 229.643C604.368 229.122 604.098 228.548 603.577 228.36L602.023 227.808C601.502 227.621 600.928 227.891 600.74 228.412C600.553 228.933 600.823 229.508 601.344 229.695Z" fill="#00FFFF"/>
<path d="M612.554 228.069C612.078 227.794 611.468 227.962 611.193 228.439C610.918 228.915 611.086 229.524 611.562 229.8L612.573 230.383C612.709 230.461 612.867 230.509 613.017 230.517C613.386 230.536 613.746 230.355 613.934 230.014C614.21 229.538 614.041 228.928 613.565 228.653L612.554 228.069Z" fill="#00FFFF"/>
<path d="M564.05 253.066C563.574 252.781 562.966 252.93 562.681 253.405L558.612 260.152L554.752 257.386C554.298 257.062 553.681 257.17 553.358 257.613C553.034 258.067 553.141 258.684 553.585 259.007L557.571 261.86L554.72 266.587C554.435 267.063 554.583 267.671 555.059 267.957C555.205 268.044 555.362 268.093 555.522 268.101C555.882 268.12 556.231 267.948 556.429 267.618L559.203 263.027L563.343 265.987C563.507 266.106 563.685 266.165 563.874 266.175C564.204 266.192 564.532 266.049 564.737 265.76C565.061 265.316 564.953 264.69 564.51 264.366L560.244 261.309L564.4 254.427C564.685 253.951 564.536 253.342 564.061 253.057L564.05 253.066Z" fill="#00FFFF"/>
<path d="M599.714 220.858C599.812 220.893 599.921 220.919 600.021 220.924C600.44 220.946 600.844 220.697 601.005 220.285L605.204 209.529C605.401 209.019 605.151 208.435 604.641 208.238C604.12 208.041 603.546 208.291 603.349 208.801L600.759 215.435L593.064 211.307C592.577 211.041 591.977 211.23 591.711 211.717C591.445 212.203 591.633 212.814 592.121 213.07L600.03 217.309L599.151 219.557C598.954 220.067 599.204 220.651 599.714 220.848L599.714 220.858Z" fill="#00FFFF"/>
<path d="M655.165 265.109L654.974 268.754C654.945 269.303 655.371 269.776 655.92 269.805C656.47 269.833 656.943 269.408 656.971 268.858L657.162 265.213C657.191 264.664 656.765 264.191 656.216 264.162C655.667 264.134 655.194 264.559 655.165 265.109Z" fill="#00FFFF"/>
<path d="M655.602 273.022C655.057 273.104 654.679 273.615 654.761 274.16L655.154 276.794C655.229 277.269 655.621 277.62 656.091 277.644C656.161 277.648 656.22 277.651 656.291 277.635C656.836 277.553 657.214 277.042 657.132 276.497L656.739 273.863C656.658 273.318 656.147 272.931 655.602 273.022Z" fill="#00FFFF"/>
<path d="M674.077 264.607C673.541 264.529 673.094 264.265 672.833 263.891C672.516 263.434 671.901 263.322 671.445 263.628C670.988 263.945 670.875 264.56 671.182 265.016C671.759 265.858 672.71 266.428 673.803 266.586C673.923 266.602 674.052 266.619 674.172 266.625C675.13 266.675 676.057 266.383 676.758 265.809C677.543 265.159 678.036 264.164 678.093 263.065C678.151 261.967 677.775 260.926 677.062 260.197C676.368 259.49 675.475 259.133 674.691 258.821C674.092 258.58 673.533 258.36 673.131 258.019C672.373 257.378 672.147 256.155 672.633 255.289C673.119 254.423 674.274 253.963 675.22 254.263C675.742 254.43 676.308 254.14 676.475 253.618C676.643 253.096 676.352 252.53 675.83 252.362C673.998 251.775 671.82 252.633 670.891 254.316C669.952 256 670.372 258.305 671.849 259.544C672.501 260.099 673.276 260.41 673.962 260.686C674.619 260.951 675.237 261.193 675.646 261.605C675.97 261.933 676.134 262.432 676.106 262.971C676.077 263.51 675.852 263.979 675.496 264.281C675.14 264.573 674.623 264.696 674.097 264.618L674.077 264.607Z" fill="#00FFFF"/>
<path d="M680.087 252.906C679.543 252.977 679.147 253.467 679.218 254.022L680.322 262.962C680.386 263.456 680.788 263.817 681.257 263.842C681.317 263.845 681.377 263.848 681.438 263.831C681.982 263.759 682.379 263.27 682.307 262.715L681.204 253.775C681.132 253.231 680.642 252.834 680.087 252.906Z" fill="#00FFFF"/>
<path d="M690.197 261.967C690.719 262.134 691.285 261.843 691.453 261.312C691.826 260.119 692.257 258.77 692.122 257.341C691.989 255.872 691.087 254.163 689.39 253.673C687.96 253.258 686.544 253.905 685.588 254.956L685.421 253.936C685.329 253.39 684.818 253.023 684.272 253.115C683.727 253.206 683.36 253.718 683.451 254.263L684.365 259.749C684.438 260.473 684.582 261.162 684.709 261.789C684.805 262.245 685.189 262.566 685.639 262.589C685.719 262.593 685.788 262.597 685.87 262.571C686.406 262.469 686.763 261.957 686.681 261.422L686.353 259.472C686.273 258.707 686.292 257.947 686.519 257.258C686.842 256.243 687.912 255.328 688.849 255.587C689.599 255.807 690.071 256.723 690.14 257.518C690.236 258.554 689.888 259.647 689.553 260.701C689.385 261.233 689.676 261.789 690.208 261.957L690.197 261.967Z" fill="#00FFFF"/>
<path d="M694.536 262.865C694.663 262.932 694.792 262.958 694.932 262.966C695.321 262.986 695.703 262.776 695.882 262.415L697.931 258.276L701.402 262.173C701.591 262.383 701.836 262.496 702.095 262.51C702.355 262.523 702.61 262.437 702.809 262.257C703.219 261.888 703.262 261.259 702.883 260.849L698.873 256.353L700.117 253.824C700.363 253.327 700.154 252.725 699.666 252.489C699.168 252.243 698.566 252.451 698.331 252.94L697.445 254.736L695.525 252.583C695.156 252.173 694.527 252.14 694.117 252.509C693.708 252.878 693.665 253.507 694.044 253.917L696.502 256.679L694.095 261.54C693.849 262.038 694.057 262.64 694.546 262.875L694.536 262.865Z" fill="#00FFFF"/>
<path d="M625.73 294.84C626.533 296.524 628.244 297.685 630.324 297.944C630.483 297.963 630.642 297.981 630.802 297.989C632.52 298.079 634.112 297.502 635.212 296.388C635.467 296.682 635.753 296.957 636.071 297.184C636.834 297.724 637.739 298.032 638.698 298.082C639.557 298.127 640.466 297.965 641.337 297.6C643.18 296.815 644.431 295.299 644.704 293.53C644.967 291.762 644.221 289.94 642.687 288.648C641.162 287.357 639.232 286.925 637.53 287.487C637.388 287.54 637.254 287.613 637.148 287.717C636.998 287.719 636.855 287.762 636.711 287.835C635.126 288.663 634.096 290.351 633.961 292.347C633.91 293.135 634.001 293.891 634.225 294.584C634.142 294.639 634.059 294.695 633.984 294.781C633.235 295.694 631.96 296.137 630.568 295.964C629.175 295.791 628.052 295.051 627.537 293.983C627.032 292.915 627.173 291.571 627.926 290.389C628.678 289.206 629.827 288.495 630.999 288.497C631.55 288.495 631.994 288.048 631.992 287.497C631.991 286.946 631.536 286.462 630.993 286.504C629.12 286.506 627.342 287.564 626.229 289.328C625.115 291.092 624.927 293.155 625.729 294.85L625.73 294.84ZM637.547 289.651C637.635 289.705 637.742 289.751 637.841 289.786C638.46 289.999 639.111 289.803 639.468 289.311C639.468 289.311 639.468 289.301 639.479 289.291C640.134 289.396 640.8 289.691 641.375 290.182C642.353 291.004 642.863 292.172 642.707 293.236C642.551 294.299 641.719 295.267 640.542 295.766C639.364 296.265 638.096 296.188 637.217 295.572C636.348 294.955 635.86 293.768 635.946 292.501C636.031 291.264 636.638 290.184 637.546 289.671L637.547 289.651Z" fill="#00FFFF"/>
<path d="M647.396 293.561C647.669 293.706 647.932 293.84 648.195 293.994C648.884 294.4 649.529 295.085 649.419 295.67C649.418 295.69 649.374 295.758 649.271 295.812C649.147 295.886 649.026 295.9 648.946 295.906C648.78 295.446 648.294 295.16 647.798 295.265C647.261 295.377 646.913 295.909 647.025 296.446C647.201 297.296 647.892 297.853 648.801 297.901C648.861 297.904 648.911 297.906 648.971 297.91C649.973 297.892 651.16 297.223 651.383 296.023C651.679 294.386 650.449 293.02 649.216 292.275C648.925 292.099 648.623 291.943 648.31 291.787C647.647 291.441 647.023 291.118 646.628 290.647C646.016 289.904 646.042 288.634 646.69 287.927C647.338 287.22 648.607 287.076 649.4 287.618C649.854 287.932 650.48 287.825 650.795 287.361C651.109 286.906 650.992 286.279 650.548 285.966C648.934 284.85 646.547 285.115 645.229 286.568C643.902 288.011 643.856 290.422 645.109 291.919C645.759 292.704 646.637 293.151 647.407 293.552L647.396 293.561Z" fill="#00FFFF"/>
<path d="M652.654 295.469C652.943 295.484 653.229 295.379 653.441 295.15L656.138 292.227L658.914 295.426C659.104 295.636 659.358 295.76 659.617 295.774C659.877 295.787 660.121 295.71 660.321 295.53C660.74 295.171 660.784 294.533 660.415 294.123L657.487 290.755L660.215 287.794C660.587 287.393 660.56 286.76 660.159 286.379C659.758 286.008 659.116 286.034 658.745 286.435L656.165 289.234L654.361 287.157C654.002 286.737 653.364 286.694 652.954 287.053C652.535 287.412 652.491 288.05 652.861 288.46L654.816 290.705L651.97 293.801C651.598 294.202 651.625 294.844 652.026 295.216C652.207 295.385 652.423 295.467 652.653 295.479L652.654 295.469Z" fill="#00FFFF"/>
<path d="M575.028 326.621C575.258 326.633 575.492 326.565 575.69 326.416L579.508 323.481C579.947 323.144 580.029 322.517 579.692 322.079C579.354 321.641 578.728 321.558 578.29 321.895L574.471 324.82C574.033 325.157 573.95 325.784 574.288 326.222C574.476 326.462 574.749 326.597 575.028 326.611L575.028 326.621Z" fill="#00FFFF"/>
<path d="M591.523 308.609L588.233 311.571C587.823 311.94 587.79 312.57 588.159 312.979C588.349 313.19 588.594 313.293 588.853 313.306C589.113 313.32 589.368 313.233 589.577 313.054L592.867 310.092C593.277 309.723 593.31 309.094 592.941 308.684C592.572 308.274 591.942 308.241 591.533 308.61L591.523 308.609Z" fill="#00FFFF"/>
<path d="M600.879 298.595L598.673 300.562C598.264 300.931 598.221 301.56 598.599 301.98C598.788 302.191 599.033 302.304 599.292 302.317C599.552 302.331 599.807 302.244 600.007 302.064L602.213 300.097C602.622 299.728 602.665 299.099 602.286 298.689C601.917 298.279 601.288 298.246 600.878 298.615L600.879 298.595Z" fill="#00FFFF"/>
<path d="M609.688 289.293L606.344 293.294C605.991 293.716 606.048 294.35 606.471 294.702C606.643 294.841 606.85 294.922 607.059 294.933C607.359 294.949 607.666 294.825 607.879 294.576L611.223 290.575C611.575 290.153 611.519 289.519 611.096 289.167C610.674 288.814 610.04 288.871 609.688 289.293Z" fill="#00FFFF"/>
<path d="M652.544 218.598C653.505 218.618 654.878 218.209 656.146 216.183C656.084 218.513 656.082 220.836 656.111 223.151C656.114 223.481 656.288 223.791 656.568 223.976C656.714 224.073 656.881 224.122 657.061 224.132C657.211 224.14 657.373 224.108 657.516 224.045C658.746 223.509 659.384 222.04 658.939 220.775C658.809 220.398 658.471 220.15 658.093 220.11C658.1 216.726 658.208 213.327 658.414 209.953C658.578 208.94 658.651 207.913 658.625 206.88C658.613 206.349 658.204 205.937 657.656 205.898C657.126 205.88 656.674 206.287 656.626 206.815C656.62 206.925 656.615 207.025 656.609 207.135C654.654 206.812 652.561 207.383 651.081 208.688C649.254 210.304 648.433 212.975 649.05 215.341C649.458 216.924 650.696 218.511 652.545 218.588L652.544 218.598ZM652.403 210.199C653.317 209.396 654.549 209 655.757 209.063C655.997 209.075 656.236 209.108 656.464 209.15C656.453 209.35 656.443 209.549 656.433 209.739C656.139 211.526 655.528 213.257 654.623 214.852C654.248 215.513 653.479 216.624 652.599 216.598C652.599 216.598 652.579 216.597 652.569 216.596C651.83 216.558 651.195 215.673 650.989 214.841C650.565 213.187 651.133 211.324 652.413 210.2L652.403 210.199Z" fill="#00FFFF"/>
<path d="M687.705 316.631C687.17 316.904 686.447 316.946 685.877 316.736C685.611 316.642 685.252 316.433 685.082 316.043C684.868 315.531 684.28 315.3 683.768 315.514C683.256 315.727 683.025 316.316 683.238 316.828C683.586 317.647 684.274 318.284 685.178 318.612C685.58 318.763 685.997 318.845 686.426 318.867C687.175 318.907 687.924 318.756 688.592 318.43C690.309 317.569 691.29 315.868 691.954 314.47C694.596 308.941 695.32 302.4 693.97 296.421C693.922 296.198 693.873 295.986 693.814 295.772C693.672 295.244 693.127 294.935 692.599 295.078C692.071 295.22 691.752 295.754 691.884 296.292C691.934 296.485 691.975 296.667 692.025 296.86C692.524 299.37 691.76 302.113 690.009 303.984C689.691 304.328 688.572 305.421 687.485 305.144C686.813 304.979 686.288 304.3 685.965 303.763C684.686 301.613 684.633 298.806 685.839 296.616C686.105 296.129 685.927 295.519 685.439 295.263C684.952 294.998 684.342 295.176 684.086 295.663C682.548 298.467 682.61 302.055 684.249 304.804C684.985 306.044 685.945 306.836 687.002 307.101C688.466 307.458 690.091 306.833 691.469 305.363C691.894 304.904 692.27 304.413 692.608 303.88C692.432 307.256 691.605 310.607 690.165 313.636C689.636 314.74 688.885 316.082 687.713 316.672L687.705 316.631Z" fill="#00FFFF"/>
<path d="M699.819 305.78C701.816 305.704 703.793 305.988 705.705 306.579C705.784 306.603 705.873 306.618 705.953 306.622C706.393 306.645 706.818 306.367 706.961 305.924C707.129 305.402 706.838 304.836 706.306 304.668C704.178 303.996 701.971 303.69 699.744 303.773C699.192 303.794 698.757 304.252 698.778 304.804C698.8 305.356 699.257 305.801 699.809 305.769L699.819 305.78Z" fill="#00FFFF"/>
<path d="M722.567 300.483C722.134 300.139 721.511 300.197 721.157 300.629L717.679 304.913L713.252 299.374C713.529 299.058 713.584 298.58 713.354 298.198C713.105 297.784 712.706 297.563 712.264 297.59C711.822 297.617 711.436 297.907 711.232 298.367C711.005 298.886 710.961 299.714 711.431 300.3L716.384 306.497L711.021 313.106C710.678 313.539 710.735 314.162 711.167 314.516C711.34 314.655 711.537 314.725 711.747 314.736C712.056 314.752 712.363 314.628 712.577 314.369L717.662 308.096L723.141 314.942C723.33 315.173 723.594 315.297 723.873 315.311C724.113 315.324 724.347 315.256 724.545 315.096C724.974 314.748 725.047 314.121 724.699 313.692L718.947 306.511L722.694 301.891C723.037 301.458 722.979 300.835 722.547 300.482L722.567 300.483Z" fill="#00FFFF"/>
<path d="M679.711 291.058C680.264 291.027 680.689 290.559 680.658 290.006C680.626 289.454 680.148 289.028 679.606 289.06C677.979 289.145 675.779 290.231 674.474 294.889C673.304 299.064 672.174 304.002 672.668 308.904C673.21 314.24 675.8 318.892 679.587 321.353C679.742 321.451 679.909 321.5 680.079 321.509C680.429 321.527 680.768 321.365 680.974 321.055C681.279 320.591 681.141 319.972 680.676 319.668C677.393 317.533 675.145 313.43 674.662 308.688C674.191 304.117 675.278 299.418 676.399 295.421C676.941 293.476 677.964 291.147 679.722 291.049L679.711 291.058Z" fill="#00FFFF"/>
<path d="M726.993 292.834C726.509 293.089 726.317 293.699 726.572 294.183C728.721 298.281 731.064 304.583 730.018 311.367C729.079 317.446 725.245 322.773 720.235 324.924C719.724 325.138 719.492 325.726 719.716 326.239C719.867 326.597 720.216 326.826 720.585 326.845C720.735 326.853 720.887 326.831 721.03 326.768C726.746 324.314 730.944 318.535 732.004 311.681C733.129 304.36 730.638 297.621 728.352 293.265C728.097 292.781 727.487 292.589 727.003 292.844L726.993 292.834Z" fill="#00FFFF"/>
<path d="M258.664 111.928C258.727 111.385 258.337 110.881 257.784 110.822L139.73 97.1605C139.462 97.127 139.213 97.2061 139.009 97.3633C138.951 97.3787 138.893 97.3719 138.829 97.4005C138.301 97.6158 138.079 98.1974 138.3 98.7124L162.132 155.207C162.243 155.453 162.441 155.65 162.692 155.745C162.943 155.841 163.225 155.834 163.462 155.728L182.769 146.971C182.978 147.02 183.193 147.011 183.394 146.921C183.403 146.917 183.412 146.913 183.43 146.905C183.622 146.819 183.754 146.65 183.851 146.475L258.009 112.836C258.173 112.763 258.295 112.642 258.395 112.499C258.535 112.348 258.646 112.156 258.674 111.924L258.664 111.928ZM165.455 147.862C164.929 147.692 164.367 147.977 164.197 148.503L163.008 152.128L154.701 132.433L171.539 125.037L181.54 145.331L164.865 152.895L166.096 149.119C166.266 148.594 165.981 148.031 165.455 147.862ZM172.967 123.431C172.723 122.937 172.119 122.715 171.625 122.981C171.47 123.051 171.357 123.167 171.272 123.293L171.131 123.028L153.919 130.592L140.715 99.2829L176.873 103.469L175.567 106.884C175.371 107.399 175.629 107.974 176.145 108.17C176.409 108.271 176.674 108.25 176.911 108.144C177.148 108.037 177.335 107.844 177.44 107.589L178.817 103.967C178.852 103.874 178.856 103.785 178.86 103.695L254.097 112.4L183.356 144.493L172.963 123.422L172.967 123.431Z" fill="white"/>
<path d="M166.157 145.201C166.357 145.111 166.529 144.957 166.632 144.746L167.777 142.511C168.03 142.025 167.836 141.421 167.345 141.159C166.85 140.91 166.256 141.1 165.994 141.591L164.849 143.826C164.596 144.312 164.79 144.916 165.28 145.178C165.565 145.324 165.883 145.324 166.147 145.205L166.157 145.201Z" fill="white"/>
<path d="M168.8 137.93C169.065 137.811 169.276 137.574 169.356 137.264L169.976 134.837C170.11 134.305 169.788 133.759 169.253 133.616C168.721 133.482 168.175 133.804 168.032 134.339L167.412 136.766C167.278 137.298 167.6 137.844 168.135 137.987C168.361 138.05 168.59 138.024 168.791 137.934L168.8 137.93Z" fill="white"/>
<path d="M170.946 130.159C171.228 130.032 171.445 129.782 171.507 129.458L171.922 127.55C172.043 127.014 171.703 126.476 171.157 126.359C170.621 126.238 170.083 126.578 169.966 127.124L169.542 129.036C169.421 129.572 169.761 130.11 170.307 130.227C170.525 130.272 170.745 130.249 170.927 130.167L170.946 130.159Z" fill="white"/>
<path d="M173.189 117.675C172.641 117.603 172.141 118.003 172.078 118.546L171.814 120.814C171.751 121.357 172.141 121.861 172.685 121.924C172.872 121.95 173.052 121.913 173.207 121.843C173.518 121.704 173.749 121.413 173.791 121.044L174.056 118.776C174.119 118.233 173.728 117.729 173.184 117.666L173.189 117.675Z" fill="white"/>
<path d="M174.741 110.708L173.948 112.774C173.752 113.29 174.01 113.864 174.525 114.06C174.79 114.161 175.054 114.141 175.292 114.034C175.529 113.928 175.716 113.734 175.821 113.479L176.614 111.413C176.81 110.897 176.552 110.322 176.036 110.126C175.521 109.93 174.946 110.188 174.75 110.704L174.741 110.708Z" fill="white"/>
<path d="M208.027 85.4794C207.522 85.2569 206.935 85.4876 206.712 85.9931L203.805 92.604L199.328 89.7364C198.866 89.4397 198.247 89.575 197.95 90.0371C197.653 90.4992 197.789 91.1181 198.251 91.4148L202.99 94.4499L200.468 100.186C200.246 100.692 200.477 101.279 200.982 101.501C201.255 101.62 201.546 101.61 201.792 101.499C202.011 101.401 202.197 101.229 202.297 100.987L204.686 95.5411L210.305 99.1455C210.597 99.3322 210.955 99.3471 211.256 99.2119C211.429 99.1341 211.582 99.0106 211.692 98.8407C211.989 98.3786 211.853 97.7597 211.391 97.4629L205.51 93.691L208.546 86.7811C208.769 86.2756 208.538 85.6886 208.032 85.4661L208.027 85.4794Z" fill="white"/>
<path d="M199.15 170.44C197.783 173.718 195.475 176.585 192.571 178.613C192.092 177.107 192.085 175.432 192.064 173.677C192.054 171.676 192.037 169.612 191.312 167.657C190.789 166.247 189.965 165.291 188.908 164.889C187.167 164.235 185.215 165.111 183.538 167.311C182.923 168.113 182.278 169.093 182.073 170.249C181.826 171.675 182.389 173.1 183.48 173.772C183.951 174.064 184.566 173.92 184.858 173.449C185.151 172.977 185.007 172.363 184.535 172.07C184.095 171.796 183.957 171.124 184.051 170.6C184.171 169.866 184.647 169.17 185.139 168.532C185.973 167.434 187.225 166.39 188.207 166.771C188.868 167.022 189.262 167.876 189.444 168.353C190.043 169.981 190.053 171.785 190.067 173.697C190.087 176.012 190.099 178.407 191.217 180.58C191.341 180.831 191.566 181.015 191.837 181.08C192.062 181.143 192.305 181.122 192.515 181.027C192.551 181.011 192.588 180.995 192.633 180.974C196.349 178.703 199.331 175.237 200.998 171.211C201.207 170.701 200.968 170.118 200.457 169.908C199.947 169.699 199.364 169.939 199.154 170.45L199.15 170.44Z" fill="white"/>
<path d="M206.397 158.285C205.795 159.312 205.288 160.406 204.888 161.539C203.585 160.908 202.208 160.43 200.764 160.168C200.227 160.07 199.697 160.428 199.598 160.966C199.5 161.503 199.858 162.033 200.396 162.131C201.746 162.38 203.065 162.851 204.292 163.484C203.61 166.213 203.473 169.081 203.949 171.826C204.043 172.376 204.565 172.734 205.106 172.644C205.187 172.63 205.273 172.602 205.346 172.569C205.756 172.385 205.998 171.948 205.924 171.488C205.53 169.22 205.61 166.86 206.103 164.589C207.564 165.621 208.854 166.906 209.835 168.383C210.109 168.797 210.635 168.945 211.082 168.744C211.128 168.724 211.183 168.699 211.224 168.669C211.68 168.366 211.809 167.749 211.51 167.28C210.247 165.37 208.591 163.757 206.681 162.532C207.064 161.406 207.539 160.316 208.136 159.302C208.416 158.826 208.249 158.21 207.773 157.931C207.296 157.651 206.69 157.814 206.41 158.29L206.397 158.285Z" fill="white"/>
<path d="M218.245 154.643C216.622 154.911 215.223 155.945 214.583 157.328C214.53 157.429 214.49 157.535 214.45 157.64C213.482 155.926 212.603 154.162 211.823 152.352C211.598 151.851 211.017 151.607 210.506 151.836C210.001 152.03 209.765 152.652 209.99 153.153C211.244 156.043 212.73 158.84 214.437 161.494C214.695 162.288 215.111 163.044 215.674 163.712C215.596 163.977 215.632 164.278 215.788 164.527C216.09 165.005 216.556 165.31 217.116 165.41C217.734 165.516 218.38 165.369 218.955 165.11C219.283 164.963 219.586 164.783 219.831 164.596C221.365 163.447 222.356 162.213 222.861 160.846C223.537 159.008 223.19 157.015 221.984 155.77C221.062 154.814 219.705 154.404 218.249 154.652L218.245 154.643ZM220.97 160.15C220.606 161.146 219.829 162.076 218.618 162.993C218.437 163.128 218.263 163.229 218.099 163.302C217.455 162.43 216.847 161.54 216.254 160.634C216.019 159.818 216.024 158.95 216.388 158.173C216.751 157.396 217.605 156.783 218.574 156.622C219.368 156.484 220.08 156.68 220.535 157.155C221.199 157.854 221.387 159.053 220.974 160.159L220.97 160.15Z" fill="white"/>
<path d="M236.207 150.337C234.546 149.494 232.83 148.773 231.083 148.177C231.392 147.402 231.737 146.655 232.156 145.93C232.436 145.454 232.269 144.838 231.784 144.563C231.307 144.283 230.692 144.45 230.416 144.935C229.924 145.792 229.506 146.692 229.159 147.604C227.907 147.257 226.645 146.936 225.361 146.712C224.814 146.618 224.297 146.981 224.203 147.528C224.109 148.074 224.472 148.591 225.019 148.685C226.21 148.896 227.366 149.177 228.521 149.502C227.808 152.114 227.631 154.868 228.042 157.566C228.122 158.111 228.63 158.486 229.184 158.402C229.275 158.383 229.365 158.364 229.447 158.327C229.848 158.147 230.094 157.719 230.024 157.268C229.658 154.867 229.814 152.408 230.435 150.079C232.103 150.645 233.722 151.321 235.291 152.13C235.361 152.164 235.418 152.193 235.475 152.222C235.306 152.408 235.202 152.663 235.213 152.932C235.23 153.483 235.696 153.91 236.247 153.893C236.431 153.887 236.611 153.85 236.785 153.772C237.049 153.653 237.277 153.452 237.441 153.182C237.738 152.697 237.782 152.086 237.552 151.575C237.237 150.872 236.566 150.527 236.211 150.346L236.207 150.337Z" fill="white"/>
<path d="M244.048 136.699C243.603 136.098 243.07 135.57 242.471 135.138C242.049 134.834 241.46 134.912 241.121 135.306C240.786 135.708 240.807 136.291 241.181 136.66C241.632 137.104 242.088 137.557 242.535 138.014C243.164 138.904 243.523 139.971 243.54 141.059C243.544 141.507 243.487 142.333 243.003 142.792C242.434 143.332 241.365 143.198 240.658 142.77C239.737 142.208 239.08 141.209 238.449 140.243C238.146 139.787 237.525 139.65 237.06 139.957C236.604 140.26 236.476 140.877 236.774 141.346C237.46 142.386 238.315 143.68 239.616 144.477C240.977 145.312 243.046 145.501 244.379 144.245C245.264 143.41 245.509 142.247 245.538 141.335C246.142 142.094 246.701 142.874 247.19 143.696C248.894 146.537 249.517 149.513 248.968 152.073C248.502 154.233 247.15 155.958 245.464 156.573C243.7 157.211 241.503 156.345 240.936 154.791C240.748 154.273 240.168 154.007 239.65 154.196C239.118 154.379 238.866 154.964 239.055 155.482C240.007 158.091 243.324 159.474 246.142 158.45C246.283 158.397 246.433 158.341 246.57 158.279C248.704 157.321 250.357 155.143 250.929 152.485C251.584 149.429 250.87 145.935 248.907 142.662C247.573 140.422 245.835 138.505 244.058 136.695L244.048 136.699Z" fill="white"/>
<path d="M197.366 186.095C191.977 187.177 186.454 186.303 182.203 183.696C177.616 180.877 174.599 176.038 174.323 171.054C174.272 170.036 174.6 168.913 175.09 168.441C175.328 168.213 175.53 168.199 175.681 168.219C176.234 168.278 176.72 167.873 176.77 167.324C176.82 166.776 176.424 166.285 175.876 166.235C175.06 166.152 174.315 166.421 173.7 167.004C172.572 168.081 172.249 169.925 172.317 171.176C172.62 176.806 176.014 182.265 181.146 185.42C185.821 188.286 191.868 189.254 197.74 188.075C197.812 188.065 197.889 188.041 197.953 188.013C198.373 187.824 198.62 187.374 198.519 186.904C198.407 186.362 197.889 186.014 197.343 186.116L197.366 186.095Z" fill="white"/>
<path d="M242.752 126.242C242.2 126.26 241.76 126.72 241.791 127.277C241.808 127.828 242.269 128.268 242.825 128.237C244.77 128.175 246.909 129.155 249.158 131.16C255.244 136.56 258.476 145.15 257.513 153.234L256.914 153.339C256.364 153.432 256.002 153.945 256.091 154.486C256.181 155.027 256.698 155.398 257.239 155.308L258.573 155.082C258.654 155.067 258.741 155.04 258.814 155.007C259.115 154.872 259.337 154.586 259.391 154.243C260.73 145.311 257.233 135.667 250.482 129.666C247.827 127.318 245.226 126.162 242.752 126.242Z" fill="white"/>
<path d="M576.278 120.104C576.07 119.59 575.497 119.341 574.977 119.537C574.466 119.736 574.215 120.318 574.411 120.839L575.328 123.17C575.446 123.467 575.685 123.677 575.962 123.762C576.173 123.826 576.404 123.824 576.62 123.733C577.13 123.534 577.382 122.952 577.186 122.432L576.269 120.101L576.278 120.104Z" fill="#FF9000"/>
<path d="M571.956 113.392C571.644 112.941 571.021 112.823 570.561 113.132C570.109 113.443 569.992 114.066 570.3 114.527L571.717 116.593C571.845 116.789 572.035 116.92 572.245 116.985C572.523 117.07 572.838 117.03 573.102 116.85C573.554 116.538 573.671 115.916 573.363 115.455L571.946 113.389L571.956 113.392Z" fill="#FF9000"/>
<path d="M567.761 107.117C567.437 106.672 566.808 106.574 566.36 106.907C565.916 107.231 565.817 107.86 566.151 108.307L567.309 109.886C567.443 110.063 567.623 110.192 567.815 110.25C568.111 110.341 568.439 110.295 568.7 110.093C569.144 109.769 569.233 109.137 568.909 108.693L567.748 107.124L567.761 107.117Z" fill="#FF9000"/>
<path d="M561.088 101.076L562.619 102.769C562.743 102.912 562.903 103.003 563.066 103.052C563.391 103.152 563.756 103.086 564.031 102.836C564.437 102.469 564.475 101.832 564.108 101.426L562.577 99.7334C562.21 99.328 561.573 99.2897 561.167 99.657C560.762 100.024 560.724 100.661 561.091 101.066L561.088 101.076Z" fill="#FF9000"/>
<path d="M557.981 95.8563C558.114 96.1061 558.327 96.2654 558.575 96.3416C558.824 96.4178 559.092 96.3955 559.339 96.2725C559.826 96.0139 560.011 95.4115 559.752 94.9244L558.721 92.9661C558.462 92.4789 557.86 92.2943 557.373 92.5529C556.886 92.8114 556.701 93.4138 556.96 93.9009L557.991 95.8592L557.981 95.8563Z" fill="#FF9000"/>
<path d="M589.843 110.623L613.409 32.6873C613.468 32.4961 613.444 32.3006 613.392 32.1279C613.369 31.9323 613.301 31.7442 613.158 31.5958C612.791 31.1903 612.154 31.1521 611.746 31.5289L523.673 111.32C523.471 111.499 523.366 111.739 523.351 111.995C523.323 112.05 523.28 112.089 523.26 112.156C523.089 112.679 523.365 113.244 523.898 113.418L582.095 132.723L582.114 132.728C582.363 132.805 582.631 132.782 582.869 132.656C583.106 132.53 583.287 132.314 583.367 132.056L589.501 111.773C589.678 111.639 589.825 111.465 589.886 111.232C589.948 111.031 589.908 110.82 589.84 110.632L589.843 110.623ZM578.407 126.739L580.35 130.023L560.062 123.291L565.595 105.752L587.45 111.605L582.15 129.131L580.122 125.717C579.839 125.243 579.227 125.087 578.753 125.37C578.28 125.654 578.124 126.265 578.407 126.739ZM552.886 87.5375L554.593 90.7699C554.726 91.0198 554.939 91.1791 555.187 91.2553C555.436 91.3315 555.704 91.3091 555.951 91.1861C556.438 90.9275 556.623 90.3252 556.364 89.838L554.548 86.4153C554.501 86.3278 554.436 86.2662 554.375 86.1949L610.503 35.3423L588.024 109.699L565.326 103.63C564.832 103.5 564.342 103.768 564.16 104.225C564.021 104.339 563.901 104.49 563.845 104.672L558.168 122.679L525.916 111.987L552.892 87.55L552.886 87.5375Z" fill="#FF9000"/>
<path d="M572.382 58.2974C572.23 57.7697 571.675 57.4637 571.147 57.6157L564.435 59.5534L561.238 52.7163C561.004 52.2159 560.411 52.0026 559.91 52.2362C559.41 52.4698 559.197 53.0633 559.43 53.5637L562.487 60.1069L557.379 61.5849C556.852 61.7369 556.546 62.2916 556.698 62.8193C556.794 63.1522 557.053 63.399 557.369 63.4957C557.551 63.5514 557.747 63.5593 557.942 63.5039L563.347 61.9396L566 67.6164C566.127 67.8853 566.353 68.0696 566.611 68.1487C566.84 68.2191 567.096 68.2034 567.328 68.0965C567.828 67.8629 568.042 67.2694 567.808 66.769L565.286 61.3832L571.7 59.5318C572.228 59.3798 572.534 58.8251 572.382 58.2974Z" fill="#FF9000"/>
<path d="M499.069 149.715C499.499 149.847 499.992 149.674 500.222 149.263C500.495 148.782 500.338 148.169 499.857 147.896C495.869 145.586 495.788 139.673 495.866 137.918C496.161 130.677 499.386 123.706 504.704 118.778C505.462 118.08 506.448 117.284 507.445 117.307C507.831 117.31 508.285 117.606 508.496 117.974C508.612 118.177 508.632 118.35 508.559 118.485C508.296 118.969 508.475 119.578 508.959 119.842C509.443 120.105 510.052 119.926 510.316 119.442C510.727 118.679 510.699 117.781 510.234 116.98C509.672 116.013 508.581 115.343 507.501 115.316C505.789 115.272 504.389 116.36 503.352 117.318C497.645 122.597 494.189 130.083 493.871 137.84C493.761 140.453 494.03 146.842 498.862 149.641C498.932 149.684 498.996 149.714 499.073 149.737L499.069 149.715Z" fill="#FF9000"/>
<path d="M520.597 128.074C520.14 127.756 519.52 127.87 519.202 128.327L515.189 134.083C512.929 131.424 510.938 128.534 509.279 125.452C509.02 124.965 508.408 124.777 507.931 125.039C507.443 125.297 507.265 125.912 507.517 126.387C509.323 129.743 511.519 132.885 514.015 135.763L508.827 143.199C508.247 144.036 507.162 145.596 507.633 147.267C507.723 147.588 507.96 147.838 508.272 147.945C508.282 147.948 508.291 147.951 508.301 147.953C508.607 148.047 508.928 147.989 509.183 147.806L510.656 146.72C511.1 146.396 511.199 145.767 510.865 145.319C510.673 145.062 510.391 144.923 510.09 144.914C510.212 144.722 510.343 144.532 510.472 144.352L515.381 137.311C515.42 137.355 515.459 137.398 515.498 137.441C515.625 137.574 515.775 137.662 515.928 137.709C516.263 137.812 516.641 137.739 516.91 137.476C517.308 137.097 517.325 136.464 516.945 136.065C516.812 135.919 516.681 135.764 516.548 135.619L520.84 129.467C521.158 129.01 521.044 128.389 520.588 128.071L520.597 128.074Z" fill="#FF9000"/>
<path d="M522.325 140.35C522.413 140.712 522.679 140.971 523.004 141.07C523.166 141.12 523.353 141.125 523.532 141.086C525.224 140.684 526.964 140.538 528.697 140.651C528.215 142.427 527.762 144.213 527.35 146.001C527.227 146.026 527.111 146.063 527.005 146.136C526.456 146.459 526.321 147.139 526.472 147.635C526.589 148.037 526.894 148.34 527.267 148.454C527.391 148.492 527.521 148.511 527.66 148.502C528.021 148.486 528.88 148.311 529.179 146.959C529.633 144.933 530.15 142.905 530.695 140.887C531.22 140.985 531.751 141.095 532.27 141.244C532.799 141.395 533.354 141.085 533.506 140.556C533.657 140.027 533.318 139.463 532.818 139.32C532.299 139.171 531.768 139.061 531.237 138.95C531.928 136.558 532.668 134.18 533.49 131.838C533.67 131.318 533.397 130.743 532.877 130.563C532.36 130.373 531.782 130.656 531.601 131.176C530.753 133.635 529.966 136.134 529.243 138.663C527.183 138.492 525.099 138.638 523.077 139.126C522.536 139.253 522.214 139.793 522.341 140.334L522.325 140.35Z" fill="#FF9000"/>
<path d="M545.959 138.966C546.054 139.507 546.569 139.875 547.121 139.782C547.662 139.687 548.029 139.172 547.937 138.62C547.783 137.757 547.246 137.018 546.422 136.535C545.408 135.952 544.108 135.825 543.001 136.229C541.261 136.856 540.093 138.412 539.242 139.553C538.182 140.964 536.978 142.572 536.397 144.465C535.708 146.712 536.081 149.012 537.385 150.489C537.571 150.703 537.836 150.826 538.118 150.829C539.94 150.854 541.376 149.516 542.39 146.856C542.253 149.827 542.325 152.798 542.597 155.768C542.635 156.188 542.922 156.516 543.304 156.634C543.428 156.672 543.549 156.688 543.691 156.668C544.24 156.617 544.649 156.136 544.598 155.587C544.062 149.795 544.331 143.968 545.401 138.261L545.42 138.267C545.632 138.395 545.909 138.616 545.968 138.969L545.959 138.966ZM540.687 145.654C540.253 146.933 539.555 148.424 538.574 148.761C537.882 147.639 537.96 146.157 538.297 145.058C538.778 143.49 539.829 142.107 540.83 140.751C541.452 139.917 542.197 138.921 543.129 138.37L540.687 145.654Z" fill="#FF9000"/>
<path d="M554.817 140.572C554.296 140.361 553.72 140.602 553.511 141.114L551.841 145.162C551.034 145.27 550.237 145.413 549.442 145.619C548.908 145.758 548.585 146.297 548.722 146.841C548.813 147.193 549.078 147.453 549.394 147.549C549.566 147.602 549.753 147.607 549.935 147.558C550.265 147.471 550.608 147.409 550.942 147.344L550.7 147.929C550.491 148.44 550.73 149.026 551.241 149.235C551.27 149.244 551.298 149.252 551.327 149.261C551.815 149.411 552.35 149.167 552.54 148.681L553.233 147.001C554.263 146.919 555.312 146.906 556.355 146.985C556.907 147.028 557.39 146.612 557.433 146.06C557.477 145.509 557.06 145.026 556.509 144.982C555.701 144.923 554.885 144.923 554.082 144.949L555.354 141.856C555.563 141.345 555.324 140.759 554.813 140.55L554.817 140.572Z" fill="#FF9000"/>
<path d="M562.34 151.926C560.676 152.064 559.085 151.524 558.072 150.461C557.692 150.062 557.059 150.046 556.66 150.425C556.261 150.805 556.245 151.438 556.625 151.837C557.417 152.665 558.412 153.274 559.54 153.62C560.468 153.904 561.47 154.013 562.512 153.924C564.81 153.729 566.791 152.621 567.964 150.878C568.892 149.489 569.189 147.938 568.771 146.607C568.235 144.874 566.418 143.773 564.803 144.198C563.825 144.453 563.125 145.169 562.618 145.694L561.427 146.918L563.554 138.241C563.686 137.706 563.354 137.186 562.816 137.031C562.281 136.899 561.742 137.225 561.607 137.769L558.602 150.027C558.499 150.466 558.693 150.923 559.088 151.138C559.479 151.363 559.974 151.284 560.292 150.963L564.044 147.083C564.504 146.607 564.89 146.233 565.299 146.129C565.88 145.972 566.639 146.498 566.853 147.201C567.076 147.939 566.875 148.902 566.286 149.768C565.474 150.983 563.991 151.794 562.327 151.932L562.34 151.926Z" fill="#FF9000"/>
<path d="M573.975 138.297C573.704 137.817 573.099 137.642 572.618 137.913C572.137 138.184 571.962 138.789 572.233 139.27C574.303 142.958 574.535 147.663 572.835 151.535C571.223 155.224 567.871 158.14 564.002 159.265L563.475 158.664C563.11 158.249 562.476 158.201 562.061 158.566C561.646 158.93 561.599 159.564 561.963 159.979L562.9 161.051C563.024 161.193 563.181 161.294 563.363 161.349C563.544 161.405 563.712 161.404 563.891 161.365C568.599 160.235 572.725 156.773 574.67 152.338C576.606 147.9 576.342 142.517 573.975 138.297Z" fill="#FF9000"/>
<path d="M497.26 57.9659C498.069 59.4899 499.364 60.5877 500.808 61.0302C501.2 61.1504 501.597 61.2198 501.999 61.2385C502.547 61.26 503.02 60.8404 503.045 60.2831C503.066 59.7354 502.647 59.2616 502.089 59.2372C500.914 59.1803 499.717 58.3111 499.024 57.0215C498.288 55.6349 498.136 53.9463 498.092 52.6251C497.803 44.0124 501.714 35.2122 508.311 29.6618C508.732 29.3099 508.79 28.679 508.428 28.2544C508.076 27.8328 507.446 27.7754 507.021 28.1368C499.972 34.0715 495.788 43.4889 496.091 52.7023C496.144 54.2351 496.319 56.2237 497.257 57.9755L497.26 57.9659Z" fill="#FF9000"/>
<path d="M504.261 51.2321C504.338 51.2872 504.421 51.3231 504.507 51.3495C504.928 51.4784 505.396 51.3184 505.639 50.9329C507.191 48.5323 509.026 46.3335 511.11 44.3786L513.082 50.9133C513.326 51.7203 513.212 52.5013 513.082 52.6183C512.526 52.6255 512.091 53.0884 512.101 53.6354C512.112 54.078 512.405 54.4504 512.807 54.5735C512.903 54.6028 513.014 54.6159 513.118 54.6166C513.76 54.6041 514.319 54.3153 514.696 53.8032C515.4 52.8372 515.297 51.3308 514.997 50.329L512.758 42.9278C514.355 41.6078 516.076 40.4304 517.892 39.4183C518.373 39.1473 518.548 38.542 518.277 38.0615C518.006 37.5809 517.4 37.4058 516.92 37.6769C515.241 38.6161 513.654 39.6985 512.139 40.8867L511.187 37.7498C511.025 37.2192 510.467 36.9227 509.937 37.0843C509.406 37.2459 509.11 37.8034 509.271 38.3341L510.468 42.278C507.969 44.4929 505.766 47.0391 503.952 49.851C503.654 50.3137 503.789 50.9304 504.251 51.2292L504.261 51.2321Z" fill="#FF9000"/>
<path d="M521.551 54.6077C521.094 54.2899 520.474 54.403 520.159 54.8503C519.187 56.2468 519.174 58.1988 520.113 59.6058C520.244 59.7924 520.431 59.9333 520.651 60.0007C520.699 60.0154 520.746 60.03 520.797 60.0351C522.899 60.3447 525.194 59.3747 526.796 57.4916C528.22 55.8153 528.941 53.7354 529.466 51.9196C530.764 47.3805 531.311 42.6951 531.104 37.9774C531.079 37.4466 530.642 37.0302 530.11 37.0242C529.579 37.0181 529.136 37.4369 529.108 37.9722C528.993 39.9868 528.357 41.9571 527.289 43.6691C527.045 44.0546 526.749 44.4762 526.386 44.6684C526.011 44.8673 525.607 44.7538 525.341 44.6306C524.737 44.3511 524.212 43.709 524.063 43.0674C523.772 41.7649 524.291 40.3446 524.955 38.7595C525.164 38.2483 524.925 37.6626 524.414 37.4536C523.909 37.2255 523.317 37.4834 523.108 37.9946C522.502 39.4613 521.665 41.4745 522.122 43.4973C522.399 44.7432 523.332 45.8972 524.503 46.4445C525.456 46.8831 526.459 46.8872 527.318 46.4393C528.015 46.0776 528.488 45.4904 528.854 44.9438C528.597 47.1136 528.156 49.269 527.549 51.3841C527.088 52.9896 526.462 54.8268 525.287 56.2029C524.466 57.175 523.088 58.1226 521.576 58.1088C521.313 57.4319 521.388 56.6077 521.8 56.0125C522.118 55.5556 522.005 54.9351 521.557 54.6202L521.551 54.6077Z" fill="#FF9000"/>
<path d="M529.18 60.7013C529.9 61.152 530.68 61.5063 531.483 61.7525C535.805 63.0772 541.008 61.5241 543.638 57.7909C543.956 57.334 543.843 56.7136 543.395 56.3986C542.948 56.0837 542.318 56.1939 542.003 56.6412C539.63 60.014 534.665 61.2006 530.974 59.4209C532.284 56.6845 535.056 54.909 537.964 53.029C541.039 51.0531 544.228 49.0081 545.845 45.6443C545.965 45.3883 545.98 45.1001 545.87 44.8465C545.772 44.5864 545.561 44.3859 545.302 44.2751C542.444 43.1584 539.453 42.3043 536.434 41.745C535.891 41.6412 535.372 42.0049 535.268 42.5483C535.164 43.0918 535.534 43.6237 536.071 43.715C538.594 44.1851 541.087 44.8552 543.497 45.7298C542.003 48.0436 539.502 49.6512 536.873 51.3347C533.55 53.4747 530.111 55.684 528.749 59.5129C528.593 59.9564 528.766 60.4488 529.161 60.6954L529.18 60.7013Z" fill="#FF9000"/>
<path d="M549.12 35.5404C548.783 35.1026 548.149 35.0231 547.721 35.3625C547.283 35.699 547.203 36.3335 547.543 36.7618C551.246 41.5368 552.163 48.7108 549.933 55.4742C548.202 60.7482 544.837 65.752 539.392 71.1637C539.345 71.0447 539.307 70.9285 539.285 70.7962C539.205 70.3743 539.29 69.961 539.507 69.6615C539.832 69.2171 539.741 68.593 539.299 68.259C538.858 67.9249 538.231 68.0256 537.897 68.467C537.358 69.2013 537.144 70.1713 537.31 71.1321C537.476 72.0928 538.012 72.937 538.78 73.434C538.857 73.489 538.95 73.5279 539.036 73.5543C539.38 73.6598 539.761 73.5778 540.03 73.315C546.078 67.4711 549.942 61.8257 551.83 56.0766C554.263 48.6851 553.218 40.8025 549.119 35.5088L549.12 35.5404Z" fill="#FF9000"/>
<path d="M494.856 66.1822C494.375 65.9092 493.766 66.0885 493.493 66.5696C493.22 67.0508 493.399 67.6601 493.88 67.933C494.72 68.3998 495.605 68.7547 496.504 69.0302C498.187 69.546 499.929 69.7978 501.535 70.0182L535.791 74.8921C536.343 74.9672 536.847 74.588 536.919 74.0454C536.994 73.4932 536.612 72.9995 536.072 72.9177L501.813 68.0534C499.417 67.7162 496.941 67.3652 494.85 66.2013L494.856 66.1822Z" fill="#FF9000"/>
<path d="M506.496 85.293C506 85.8207 505.352 86.6367 505.46 87.6843C505.566 88.6686 506.31 89.4825 507.55 89.9774C507.735 90.0552 507.926 90.1138 508.118 90.1724C510.881 91.0194 514.046 90.3162 516.177 88.3443C516.586 87.9674 516.602 87.3344 516.225 86.926C515.848 86.5176 515.215 86.5014 514.81 86.8687C513.114 88.4409 510.423 88.965 508.282 88.0996C507.733 87.8789 507.467 87.6197 507.454 87.4587C507.442 87.3609 507.49 87.1351 507.953 86.6494C508.477 86.0989 509.062 85.5565 509.687 84.9845C511.825 83.0252 514.251 80.8089 513.884 77.6736C513.836 77.2825 513.563 76.9475 513.18 76.8303C510.809 76.1034 508.346 75.3693 505.734 75.3949C502.714 75.4208 499.998 76.6382 498.487 78.633C498.153 79.0745 498.244 79.6986 498.676 80.0297C499.117 80.3638 499.741 80.2727 500.072 79.8407C501.215 78.3294 503.338 77.4111 505.748 77.3968C507.816 77.3719 509.892 77.9351 511.903 78.541C511.758 80.3792 510.087 81.9065 508.326 83.5214C507.701 84.0933 507.06 84.6814 506.49 85.2805L506.496 85.293Z" fill="#FF9000"/>
<path d="M524.218 82.86C523.721 83.1156 522.057 83.9026 521.482 83.2555C521.133 82.8559 521.312 82.241 521.794 81.0083C522.246 79.8396 522.755 78.5208 522.252 77.195C522.134 76.8974 521.884 76.6535 521.572 76.5789C520.586 76.3182 519.525 76.4009 518.583 76.8128C518.075 77.0339 517.853 77.6246 518.074 78.1316C518.295 78.6387 518.885 78.8616 519.393 78.6405C519.721 78.4902 520.086 78.4243 520.453 78.4217C520.435 78.9599 520.185 79.605 519.926 80.2787C519.42 81.5879 518.783 83.223 519.98 84.5731C520.266 84.9014 520.665 85.2017 521.21 85.3687C522.09 85.6384 523.341 85.551 525.131 84.625C525.618 84.3664 525.812 83.767 525.553 83.2799C525.298 82.7831 524.695 82.5985 524.211 82.8475L524.218 82.86Z" fill="#FF9000"/>
<path d="M69.9125 223.978C70.4499 223.861 70.794 223.325 70.677 222.788C70.5601 222.251 70.0247 221.907 69.4873 222.024L16.8938 233.354C16.415 233.458 16.0812 233.899 16.1051 234.385L17.6205 262.752L5.34697 237.903C5.10514 237.403 4.49968 237.207 4.00943 237.447C3.50942 237.689 3.31366 238.294 3.55337 238.784L17.9834 267.994C18.1865 268.411 18.6433 268.629 19.0928 268.531C19.1026 268.529 19.1221 268.524 19.1319 268.522C19.5869 268.403 19.9033 267.976 19.8816 267.499L18.1594 235.125L69.9223 223.976L69.9125 223.978Z" fill="white"/>
<path d="M25.5899 242.842L26.6934 241.282L28.9995 248.353C29.1568 248.841 29.6696 249.129 30.1582 249.022C30.1875 249.016 30.2266 249.007 30.2559 249.001C30.7806 248.825 31.0672 248.262 30.8917 247.737L27.9713 238.783C27.8514 238.42 27.5391 238.161 27.1695 238.108C26.7977 238.046 26.4239 238.209 26.2034 238.513L23.9463 241.685C23.6243 242.134 23.729 242.756 24.1777 243.078C24.6264 243.4 25.2483 243.295 25.5703 242.846L25.5899 242.842Z" fill="white"/>
<path d="M23.2241 256.569C23.3738 257.069 23.8888 257.366 24.3969 257.255C24.4262 257.249 24.4555 257.243 24.4848 257.236L40.1851 252.398C40.7118 252.232 41.0104 251.676 40.8446 251.149C40.6789 250.622 40.1227 250.323 39.5959 250.489L23.8956 255.328C23.3688 255.494 23.0702 256.05 23.236 256.577L23.2241 256.569Z" fill="white"/>
<path d="M30.3048 273.449C30.3048 273.449 30.3342 273.443 30.3537 273.439C30.8848 273.293 31.2071 272.752 31.0609 272.221L28.4097 262.246C28.2634 261.715 27.7009 261.387 27.1915 261.539C26.6604 261.685 26.3381 262.226 26.4843 262.757L29.1355 272.732C29.2699 273.255 29.7989 273.57 30.3167 273.457L30.3048 273.449Z" fill="white"/>
<path d="M45.8329 265.374C45.5911 264.873 45.003 264.664 44.503 264.906L37.6247 268.193C37.9823 267.532 38.3021 266.838 38.5429 266.11C39.2873 263.84 39.0536 261.496 37.9198 259.86C36.9747 258.479 35.0499 257.394 33.2205 258.017C32.2081 258.35 31.4002 259.293 31.16 260.399C30.9452 261.388 31.2164 262.352 31.8861 262.984C32.2847 263.358 32.9258 263.341 33.2996 262.943C33.6831 262.542 33.6567 261.903 33.2581 261.529C33.0507 261.329 33.0728 261.007 33.1072 260.835C33.198 260.406 33.5055 260.032 33.8488 259.917C34.732 259.602 35.7531 260.249 36.2639 260.998C37.042 262.128 37.1842 263.817 36.6301 265.503C36.0989 267.154 35.0293 268.635 34.0023 270.076C33.736 270.451 33.7522 270.949 34.0543 271.303C34.3004 271.587 34.6772 271.72 35.0388 271.642C35.117 271.625 35.1854 271.61 35.2571 271.563L45.3616 266.735C45.8616 266.493 46.0692 265.895 45.8295 265.405L45.8329 265.374Z" fill="white"/>
<path d="M57.4281 245.995C57.1047 245.544 56.4793 245.444 56.0375 245.766L52.5065 248.304L50.986 243.856C50.8104 243.331 50.2368 243.047 49.7143 243.232C49.1896 243.408 48.9148 243.979 49.0904 244.504L50.8069 249.524L47.6828 251.769C47.2313 252.093 47.132 252.718 47.4554 253.17C47.6925 253.507 48.1008 253.643 48.4819 253.56C48.6089 253.533 48.7393 253.474 48.8557 253.397L51.4836 251.505L52.7461 255.191C52.9131 255.677 53.4141 255.956 53.9027 255.85C53.9417 255.842 53.9808 255.833 54.0199 255.825C54.5446 255.649 54.8194 255.078 54.6438 254.553L53.1854 250.296L57.2125 247.403C57.6641 247.08 57.7634 246.455 57.44 246.003L57.4281 245.995Z" fill="white"/>
<path d="M67.6825 235.976L68.4293 233.153L70.6336 241.167C70.7756 241.679 71.2949 241.996 71.8127 241.883C71.8323 241.879 71.8518 241.875 71.8714 241.87C72.4024 241.724 72.7129 241.176 72.5666 240.645L69.3803 229.057C69.2651 228.622 68.8618 228.32 68.4127 228.326C67.9637 228.332 67.5686 228.633 67.4484 229.068L65.7616 235.473C65.6215 236.005 65.9347 236.551 66.4786 236.699C67.0105 236.839 67.5564 236.526 67.7042 235.982L67.6825 235.976Z" fill="white"/>
<path d="M88.9751 238.497C88.78 237.977 88.1932 237.726 87.6847 237.928L63.3258 247.373C62.8075 247.578 62.5544 248.155 62.7571 248.663C62.9395 249.125 63.4243 249.378 63.9031 249.274C63.952 249.263 64.0008 249.252 64.0573 249.23L88.4162 239.785C88.9345 239.58 89.1876 239.003 88.9849 238.495L88.9751 238.497Z" fill="white"/>
<path d="M78.643 257.754L79.8711 256.954C80.2845 256.691 80.4441 256.154 80.2443 255.707C80.0446 255.259 79.5347 255.032 79.0602 255.156L76.9479 255.748L74.6868 248.79C74.521 248.263 73.9593 247.986 73.4304 248.142C72.9427 248.3 72.6802 248.787 72.7767 249.277C72.4373 249.269 72.0927 249.426 71.9059 249.743L66.2407 259.03C66.0309 259.382 66.0463 259.829 66.3008 260.153C66.5337 260.47 66.9322 260.609 67.3133 260.526C67.3329 260.522 67.3524 260.517 67.372 260.513L75.6593 258.198L77.3307 263.341C77.4901 263.838 78.0009 264.116 78.4894 264.009C78.5188 264.003 78.5579 263.995 78.5872 263.988C79.1118 263.813 79.4006 263.259 79.2348 262.732L77.6255 257.781C77.9403 257.958 78.3329 257.975 78.6668 257.769L78.643 257.754ZM69.2579 257.892L73.354 251.178L75.017 256.281L69.2579 257.892Z" fill="white"/>
<path d="M87.2927 260.538C88.1428 260.354 88.9627 259.889 89.5948 259.219C90.4002 258.358 90.8108 257.235 90.7082 256.152C90.5707 254.626 89.5313 253.236 87.8393 252.232C88.144 250.293 88.1675 248.426 87.2367 246.735C86.4696 245.326 84.8176 244.365 83.1462 244.35C81.8317 244.329 80.7216 244.918 80.1194 245.96C79.0231 247.836 80.0679 250.239 81.711 251.488C82.0926 251.784 82.5026 252.022 82.9084 252.241C82.0071 253.46 81.5816 254.986 81.7901 256.414C82.1291 258.725 84.1394 260.58 86.3627 260.639C86.6707 260.643 86.9919 260.614 87.2948 260.548L87.2927 260.538ZM81.8406 246.957C82.1379 246.442 82.6992 246.341 83.1092 246.343C84.0625 246.351 85.0568 246.923 85.4797 247.69C86.0543 248.732 86.1029 249.99 85.9375 251.346C85.9137 251.331 85.8822 251.328 85.8585 251.313C85.8295 251.227 85.7909 251.143 85.7348 251.073C85.4492 250.654 84.8998 250.528 84.4563 250.748C83.8912 250.502 83.3707 250.227 82.9058 249.877C81.974 249.169 81.3237 247.827 81.8385 246.947L81.8406 246.957ZM83.7622 256.118C83.6031 255.058 84.0171 253.903 84.8051 253.056C85.0639 253.164 85.3303 253.259 85.589 253.367C85.5856 253.398 85.5725 253.432 85.5691 253.463C85.4604 253.999 85.8029 254.538 86.3481 254.645C86.7241 254.727 87.1 254.573 87.3345 254.287C87.9897 254.758 88.6407 255.445 88.7203 256.329C88.7701 256.84 88.554 257.399 88.1377 257.837C87.6637 258.339 87.0213 258.633 86.4129 258.612C85.1787 258.583 83.9647 257.425 83.7677 256.096L83.7622 256.118Z" fill="white"/>
<path d="M696.286 118.511L689.782 133.142C689.56 133.646 689.782 134.236 690.295 134.459C690.401 134.508 690.509 134.537 690.619 134.546C691.028 134.58 691.438 134.354 691.611 133.957L692.869 131.131C692.869 131.131 692.889 131.133 692.899 131.134L699.848 130.958L701.124 135.158C701.252 135.56 701.6 135.83 701.999 135.863C702.119 135.873 702.25 135.864 702.374 135.824C702.898 135.667 703.196 135.1 703.039 134.575L701.809 130.539C701.954 130.36 702.042 130.147 702.033 129.895C702.02 129.453 701.727 129.107 701.327 128.974L698.277 118.937L698.314 118.86C698.536 118.356 698.315 117.766 697.801 117.543C697.298 117.32 696.708 117.542 696.484 118.055L696.361 118.326C696.327 118.383 696.301 118.452 696.275 118.52L696.286 118.511ZM699.241 128.961L693.761 129.098L697.033 121.723L699.231 128.96L699.241 128.961Z" fill="white"/>
<path d="M708.631 124.272C708.586 124.82 708.997 125.306 709.545 125.352L714.398 125.755C714.946 125.8 715.432 125.389 715.478 124.841C715.523 124.293 715.112 123.807 714.564 123.762L709.711 123.359C709.163 123.313 708.677 123.724 708.631 124.272Z" fill="white"/>
<path d="M709.552 129.256C709.612 129.261 709.672 129.266 709.733 129.251L714.985 128.714C715.532 128.659 715.934 128.17 715.88 127.614C715.825 127.067 715.336 126.666 714.78 126.72L709.527 127.257C708.981 127.312 708.579 127.8 708.633 128.357C708.683 128.842 709.074 129.216 709.542 129.255L709.552 129.256Z" fill="white"/>
<path d="M731.089 108.678C731.241 108.781 731.407 108.845 731.576 108.859C731.915 108.887 732.269 108.736 732.484 108.433C733.874 106.441 735.414 104.572 737.065 102.823L742.81 108.427C742.987 108.593 743.2 108.691 743.429 108.71C743.718 108.734 744.007 108.637 744.226 108.415C744.611 108.015 744.603 107.382 744.203 106.998L738.457 101.403C740.531 99.3877 742.771 97.5468 745.195 95.9118C745.652 95.5986 745.774 94.9766 745.461 94.5191C745.148 94.0616 744.526 93.9397 744.068 94.2529C741.537 95.9692 739.19 97.8915 737.017 100.009L733.601 96.6847C733.201 96.3003 732.568 96.3079 732.185 96.6975C731.801 97.0971 731.808 97.7299 732.208 98.1143L735.614 101.438C733.887 103.261 732.28 105.215 730.822 107.301C730.504 107.756 730.613 108.377 731.068 108.696L731.089 108.678Z" fill="white"/>
<path d="M747.55 111.892C747.646 111.94 747.755 111.959 747.855 111.967C748.273 112.002 748.684 111.765 748.858 111.358L750.057 108.528C750.269 108.024 750.038 107.432 749.523 107.219C749.01 106.996 748.428 107.238 748.215 107.752L747.016 110.583C746.804 111.087 747.036 111.678 747.55 111.892Z" fill="white"/>
<path d="M759.911 110.34C759.911 110.34 759.99 110.346 760.04 110.35C760.594 110.326 761.024 109.86 761 109.306L760.459 96.2466C760.435 95.6927 759.958 95.2718 759.415 95.2869C758.861 95.3111 758.431 95.7771 758.455 96.331L758.996 109.391C759.014 109.904 759.412 110.308 759.91 110.35L759.911 110.34Z" fill="white"/>
<path d="M766.481 105.778C766.481 105.778 766.551 105.784 766.591 105.787L768.079 105.75L768.035 107.121C768.021 107.652 768.425 108.107 768.953 108.151C768.973 108.152 768.983 108.153 769.003 108.155C769.553 108.17 770.021 107.738 770.036 107.187L770.089 105.706L771.828 105.67C772.381 105.656 772.82 105.201 772.806 104.648C772.792 104.095 772.346 103.666 771.784 103.67L770.155 103.705L770.237 101.022C770.253 100.472 769.839 100.016 769.27 99.9888C768.719 99.9732 768.252 100.406 768.236 100.957L768.145 103.749L766.546 103.786C765.993 103.801 765.554 104.256 765.568 104.809C765.576 105.321 765.983 105.736 766.481 105.778Z" fill="white"/>
<path d="M780.036 101.927C778.74 103.766 777.661 105.763 776.844 107.863C776.641 108.378 776.893 108.961 777.409 109.154C777.506 109.192 777.595 109.21 777.695 109.218C778.123 109.254 778.545 109.008 778.711 108.58C779.412 106.782 780.327 105.072 781.402 103.485L784.91 107.519C785.084 107.725 785.335 107.836 785.584 107.856C785.834 107.877 786.111 107.8 786.327 107.617C786.749 107.251 786.791 106.622 786.424 106.21L782.612 101.84C783.609 100.598 784.719 99.4358 785.939 98.3933C786.36 98.0369 786.403 97.3983 786.056 96.9881C785.699 96.5672 785.061 96.5242 784.651 96.8714C783.43 97.9139 782.311 99.0653 781.295 100.305L777.548 96.0005C777.191 95.5895 776.553 95.5365 776.142 95.9037C775.72 96.27 775.678 96.8987 776.045 97.3105L780.056 101.928L780.036 101.927Z" fill="white"/>
<path d="M792.931 93.3448C792.022 92.9281 790.845 93.0912 790.005 93.7741C789.252 94.3838 788.929 95.26 789.118 96.1187C789.244 96.6609 789.778 96.9963 790.32 96.8707C790.862 96.7452 791.198 96.2111 791.072 95.6689C791.044 95.526 791.207 95.369 791.261 95.3333C791.508 95.1331 791.865 95.0624 792.078 95.1604C792.716 95.4542 792.946 96.4266 792.785 97.1558C792.583 98.1424 791.863 99.076 791.233 99.8967C790.996 100.208 790.961 100.627 791.143 100.973C791.309 101.278 791.603 101.473 791.942 101.501C791.992 101.505 792.042 101.509 792.093 101.503L797.26 101.15C797.814 101.116 798.225 100.638 798.191 100.083C798.157 99.5286 797.669 99.1168 797.125 99.1519L794.027 99.3561C794.343 98.8105 794.604 98.21 794.739 97.5489C795.056 96.0299 794.535 94.0901 792.912 93.3331L792.931 93.3448Z" fill="white"/>
<path d="M800.868 113.401C800.946 113.427 801.035 113.445 801.115 113.451C801.563 113.489 801.987 113.223 802.143 112.784L803.452 108.989C803.636 108.463 803.352 107.897 802.835 107.714C802.319 107.531 801.743 107.814 801.56 108.331L800.251 112.125C800.067 112.652 800.351 113.217 800.868 113.401Z" fill="white"/>
<path d="M811.622 110.421C811.607 110.961 812.011 111.406 812.539 111.45C812.559 111.452 812.569 111.453 812.589 111.454C813.14 111.47 813.607 111.037 813.623 110.487L814.046 98.1492C814.061 97.5986 813.63 97.1113 813.078 97.1156C812.527 97.0999 812.06 97.5327 812.044 98.0833L811.622 110.421Z" fill="white"/>
<path d="M742.228 121.956C741.748 121.695 741.132 121.865 740.871 122.355L737.553 128.471C735.052 127.049 732.993 124.781 731.857 122.148C731.638 121.638 731.045 121.408 730.545 121.627C730.036 121.846 729.806 122.439 730.025 122.939C731.355 126.019 733.681 128.581 736.604 130.228L731.866 138.946C731.63 139.378 731.745 139.919 732.132 140.213C732.293 140.336 732.478 140.402 732.657 140.417C732.936 140.44 733.215 140.353 733.422 140.149L734.183 139.44C734.477 139.163 734.573 138.74 734.442 138.377L742.628 123.303C742.89 122.813 742.719 122.207 742.229 121.946L742.228 121.956Z" fill="white"/>
<path d="M743.512 138.157C743.645 138.239 743.801 138.292 743.951 138.304C744.32 138.335 744.685 138.165 744.893 137.831L746.403 135.357C746.693 134.89 746.543 134.275 746.066 133.985C745.588 133.694 744.984 133.845 744.693 134.322L743.183 136.796C742.893 137.263 743.043 137.878 743.521 138.168L743.512 138.157Z" fill="white"/>
<path d="M756.212 129.499L757.072 128.567L756.36 138.342C756.315 138.89 756.727 139.366 757.275 139.411L757.285 139.412C757.833 139.458 758.32 139.036 758.355 138.487L759.272 125.88C759.307 125.462 759.059 125.06 758.672 124.887C758.285 124.714 757.825 124.817 757.539 125.124L754.74 128.133C754.366 128.533 754.383 129.167 754.793 129.542C755.194 129.916 755.827 129.899 756.203 129.488L756.212 129.499Z" fill="white"/>
<path d="M763.67 135.989C763.67 135.989 763.76 135.996 763.81 136L766.885 135.824L766.969 138.681C766.986 139.194 767.383 139.609 767.882 139.65C767.921 139.653 767.951 139.656 767.991 139.659C768.544 139.645 768.974 139.179 768.96 138.626L768.881 135.709L770.676 135.608C771.231 135.573 771.651 135.106 771.617 134.552C771.582 133.997 771.106 133.576 770.561 133.611L768.817 133.707L768.709 129.815C768.694 129.262 768.228 128.842 767.685 128.847C767.132 128.861 766.702 129.327 766.716 129.88L766.83 133.833L763.694 134.014C763.139 134.048 762.719 134.515 762.753 135.07C762.782 135.574 763.18 135.968 763.669 136.009L763.67 135.989Z" fill="white"/>
<path d="M785.915 128.876L783.812 133.297L777.147 128.499C776.701 128.181 776.071 128.279 775.753 128.724C775.435 129.169 775.533 129.8 775.979 130.118L782.937 135.131L781.345 138.481C780.996 138.572 780.712 138.849 780.631 139.224L780.281 140.78C780.169 141.273 780.449 141.778 780.926 141.948C781.004 141.974 781.093 141.992 781.173 141.998C781.581 142.032 781.981 141.815 782.163 141.428L784.985 135.492C784.985 135.492 785.029 135.445 785.051 135.417C785.142 135.284 785.194 135.148 785.216 134.999L787.721 129.728C787.953 129.226 787.742 128.636 787.25 128.395C786.748 128.152 786.158 128.374 785.916 128.866L785.915 128.876Z" fill="white"/>
<path d="M790.955 130.9C791.015 130.905 791.065 130.909 791.125 130.904L794.855 130.582C795.401 130.537 795.812 130.049 795.767 129.504C795.722 128.958 795.245 128.547 794.689 128.591L793.112 128.731C793.301 128.386 793.462 128.028 793.585 127.627C794.028 126.158 793.672 124.644 792.671 123.778C792.025 123.212 791.07 122.993 790.199 123.211C789.41 123.407 788.806 123.918 788.537 124.618C788.334 125.133 788.586 125.716 789.102 125.91C789.618 126.103 790.2 125.86 790.393 125.345C790.443 125.228 790.608 125.172 790.68 125.158C790.925 125.098 791.202 125.151 791.361 125.284C791.82 125.684 791.844 126.479 791.677 127.047C791.429 127.849 790.847 128.573 790.277 129.278C790.031 129.589 789.984 130.027 790.176 130.374C790.341 130.679 790.636 130.874 790.975 130.902L790.955 130.9Z" fill="white"/>
<path d="M797.733 143.765C797.84 143.814 797.949 143.833 798.048 143.842C798.467 143.876 798.867 143.649 799.051 143.243L801.107 138.547C801.329 138.043 801.098 137.452 800.594 137.23C800.091 137.007 799.5 137.239 799.277 137.743L797.221 142.438C796.999 142.942 797.231 143.533 797.734 143.755L797.733 143.765Z" fill="white"/>
<path d="M810.839 130.465C810.29 130.439 809.822 130.872 809.797 131.422L809.385 141.813C809.36 142.353 809.774 142.809 810.302 142.853C810.312 142.854 810.332 142.855 810.342 142.856C810.892 142.882 811.359 142.449 811.385 141.899L811.796 131.508C811.822 130.958 811.402 130.461 810.839 130.465Z" fill="white"/>
<path d="M729.382 165.11C729.537 165.414 729.851 165.621 730.19 165.649C730.21 165.651 730.22 165.652 730.24 165.653L738.787 165.922C739.337 165.937 739.805 165.505 739.821 164.954C739.836 164.403 739.412 163.957 738.853 163.92L732.117 163.712L735.182 159.19L738.397 159.257C738.949 159.262 739.406 158.829 739.412 158.277C739.418 157.726 738.974 157.267 738.433 157.263L736.519 157.224L738.887 153.728C739.08 153.453 739.11 153.094 738.975 152.782C738.841 152.47 738.558 152.246 738.232 152.189L730.608 150.833C730.054 150.737 729.543 151.095 729.447 151.639C729.352 152.183 729.71 152.705 730.254 152.8L736.355 153.879L734.125 157.176L729.988 157.093C729.436 157.087 728.979 157.521 728.973 158.072C728.959 158.603 729.364 159.048 729.892 159.092C729.912 159.094 729.932 159.095 729.952 159.097L732.797 159.153L729.445 164.102C729.24 164.406 729.217 164.796 729.381 165.12L729.382 165.11Z" fill="white"/>
<path d="M744.482 163.806L743.222 167.615C743.048 168.142 743.332 168.707 743.859 168.882C743.937 168.908 744.016 168.925 744.096 168.932C744.544 168.969 744.979 168.694 745.126 168.244L746.386 164.436C746.56 163.908 746.276 163.343 745.749 163.169C745.231 162.995 744.656 163.278 744.482 163.806Z" fill="white"/>
<path d="M756.725 153.885C755.977 153.221 754.869 153.4 754.231 153.949C753.615 154.48 753.487 155.292 753.905 155.939C754.208 156.406 754.83 156.527 755.286 156.224C755.382 156.162 755.458 156.088 755.525 156.003C755.521 156.174 755.506 156.363 755.477 156.591L754.19 167.733C754.143 168.181 754.398 168.613 754.815 168.778C754.903 168.816 755.002 168.834 755.101 168.842C755.44 168.87 755.784 168.718 755.988 168.434L756.826 167.28C757.154 166.835 757.056 166.205 756.611 165.887C756.555 165.842 756.487 165.807 756.429 165.782L757.464 156.827C757.539 156.161 757.705 154.769 756.705 153.884L756.725 153.885Z" fill="white"/>
<path d="M761.38 163.082C761.397 163.595 761.794 164.01 762.292 164.051C762.332 164.054 762.372 164.058 762.402 164.06L765.208 163.982L765.087 165.437C765.062 165.987 765.464 166.462 766.012 166.507C766.56 166.553 767.047 166.132 767.082 165.583L767.22 163.929L770.549 163.834C771.102 163.82 771.532 163.354 771.518 162.801C771.503 162.247 771.038 161.807 770.484 161.832L767.346 161.922L767.603 158.472C767.648 157.923 767.236 157.448 766.688 157.402C766.14 157.357 765.653 157.778 765.618 158.327L765.344 161.987L762.336 162.078C761.783 162.092 761.353 162.558 761.367 163.111L761.38 163.082Z" fill="white"/>
<path d="M788.118 156.353C787.854 155.066 786.587 154.379 784.643 154.468L776.655 154.828C776.101 154.853 775.681 155.32 775.706 155.873C775.73 156.427 776.197 156.837 776.75 156.823L784.738 156.463C785.704 156.423 786.137 156.65 786.159 156.752C786.165 156.792 786.167 157.013 785.475 157.618L782.38 160.321L777.567 160.162C777.016 160.147 776.549 160.579 776.533 161.13C776.519 161.661 776.923 162.116 777.451 162.16C777.471 162.161 777.481 162.162 777.501 162.164L780.163 162.254L774.289 167.366C773.965 167.65 773.856 168.112 774.024 168.508C774.176 168.851 774.498 169.079 774.857 169.109C774.917 169.114 774.967 169.118 775.027 169.113L785.905 168.14C786.451 168.095 786.862 167.607 786.808 167.051C786.763 166.505 786.275 166.104 785.719 166.148L777.915 166.844L783.086 162.337L786.258 162.44C786.809 162.455 787.276 162.022 787.292 161.472C787.307 160.921 786.875 160.454 786.324 160.438L785.303 160.404L786.785 159.112C787.229 158.727 788.397 157.71 788.12 156.333L788.118 156.353Z" fill="white"/>
<path d="M792.755 153.085C792.309 151.694 791.044 150.605 789.598 150.375C789.053 150.299 788.541 150.658 788.456 151.203C788.371 151.748 788.739 152.26 789.283 152.355C789.986 152.474 790.632 153.029 790.857 153.7C791.072 154.38 790.873 155.207 790.369 155.717C790.052 156.032 789.982 156.507 790.191 156.896C790.356 157.201 790.661 157.397 790.99 157.424C791.079 157.431 791.18 157.43 791.272 157.407L795.448 156.54C795.99 156.424 796.334 155.901 796.228 155.361C796.113 154.819 795.59 154.465 795.049 154.58L792.874 155.032C792.998 154.39 792.963 153.715 792.765 153.086L792.755 153.085Z" fill="white"/>
<path d="M794.007 172.074L795.795 167.707C796.008 167.193 795.756 166.61 795.251 166.408C794.736 166.204 794.154 166.447 793.951 166.952L792.163 171.319C791.95 171.833 792.203 172.416 792.708 172.618C792.805 172.657 792.903 172.685 793.002 172.693C793.421 172.728 793.842 172.492 794.007 172.074Z" fill="white"/>
<path d="M805.267 172.056C805.267 172.056 805.307 172.059 805.327 172.061C805.878 172.077 806.336 171.633 806.352 171.083L806.6 160.356C806.616 159.806 806.173 159.347 805.622 159.332C805.071 159.316 804.613 159.76 804.597 160.31L804.349 171.037C804.335 171.567 804.739 172.012 805.267 172.056Z" fill="white"/>
<path d="M722.637 172.859C722.753 173.28 723.111 173.56 723.519 173.594C723.629 173.603 723.75 173.593 723.863 173.562C724.397 173.416 724.713 172.87 724.567 172.337C717.395 145.972 718.572 117.301 727.891 91.6146C728.074 91.098 727.811 90.5243 727.295 90.3309C726.779 90.1375 726.205 90.4109 726.011 90.9267C716.56 117.004 715.368 146.095 722.647 172.859L722.637 172.859Z" fill="white"/>
<path d="M811.264 179.107C811.352 179.134 811.44 179.162 811.53 179.169C811.969 179.206 812.391 178.95 812.547 178.521C822.325 151.899 824.778 123.093 819.65 95.193C819.554 94.6532 819.032 94.2888 818.482 94.3936C817.942 94.4892 817.578 95.0109 817.682 95.5614C822.74 123.105 820.316 151.552 810.668 177.833C810.474 178.349 810.748 178.923 811.263 179.117L811.264 179.107Z" fill="white"/>
</g>
<defs>
<filter id="filter0_f_15_429" x="0.451477" y="24.8983" width="824.81" height="360.362" filterUnits="userSpaceOnUse" color-interpolation-filters="sRGB">
<feFlood flood-opacity="0" result="BackgroundImageFix"/>
<feBlend mode="normal" in="SourceGraphic" in2="BackgroundImageFix" result="shape"/>
<feGaussianBlur stdDeviation="1.5" result="effect1_foregroundBlur_15_429"/>
</filter>
</defs>
</svg>
