<svg width="1280" height="832" viewBox="0 0 1280 832" fill="none" xmlns="http://www.w3.org/2000/svg">
<g opacity="0.6">
<mask id="mask0_15_567" style="mask-type:alpha" maskUnits="userSpaceOnUse" x="0" y="0" width="1280" height="832">
<rect width="1280" height="832" fill="#08095C"/>
</mask>
<g mask="url(#mask0_15_567)">
<g opacity="0.25">
<path d="M1034.83 -211.022V1041.02" stroke="white" stroke-dasharray="6 6"/>
<path d="M192.791 -211.022V1041.02" stroke="white" stroke-dasharray="6 6"/>
<path d="M613.809 -211.022V1041.02" stroke="white" stroke-dasharray="6 6"/>
<path d="M1245.07 -211.022V1041.02" stroke="white" stroke-dasharray="6 6"/>
<path d="M403.038 -211.022V1041.02" stroke="white" stroke-dasharray="6 6"/>
<path d="M824.056 -211.022V1041.02" stroke="white" stroke-dasharray="6 6"/>
<path d="M1140.21 -211.022V1041.02" stroke="white" stroke-dasharray="6 6"/>
<path d="M298.176 -211.022V1041.02" stroke="white" stroke-dasharray="6 6"/>
<path d="M719.195 -211.022V1041.02" stroke="white" stroke-dasharray="6 6"/>
<path d="M508.423 -211.022V1041.02" stroke="white" stroke-dasharray="6 6"/>
<path d="M87.9292 -211.022V1041.02" stroke="white" stroke-dasharray="6 6"/>
<path d="M929.442 -211.022V1041.02" stroke="white" stroke-dasharray="6 6"/>
<path d="M1087.26 -211.022V1041.02" stroke="white" stroke-dasharray="6 6"/>
<path d="M245.221 -211.022V1041.02" stroke="white" stroke-dasharray="6 6"/>
<path d="M666.24 -211.022V1041.02" stroke="white" stroke-dasharray="6 6"/>
<path d="M455.468 -211.022V1041.02" stroke="white" stroke-dasharray="6 6"/>
<path d="M34.9742 -211.022V1041.02" stroke="white" stroke-dasharray="6 6"/>
<path d="M876.487 -211.022V1041.02" stroke="white" stroke-dasharray="6 6"/>
<path d="M1192.64 -211.022V1041.02" stroke="white" stroke-dasharray="6 6"/>
<path d="M350.607 -211.022V1041.02" stroke="white" stroke-dasharray="6 6"/>
<path d="M771.625 -211.022V1041.02" stroke="white" stroke-dasharray="6 6"/>
<path d="M560.854 -211.022V1041.02" stroke="white" stroke-dasharray="6 6"/>
<path d="M140.36 -211.022V1041.02" stroke="white" stroke-dasharray="6 6"/>
<path d="M981.872 -211.022V1041.02" stroke="white" stroke-dasharray="6 6"/>
<path d="M-741 126.631H2020" stroke="white" stroke-dasharray="6 6"/>
<path d="M-741 336.354H2020" stroke="white" stroke-dasharray="6 6"/>
<path d="M-741 703.369H2020" stroke="white" stroke-dasharray="6 6"/>
<path d="M-741 231.493H2020" stroke="white" stroke-dasharray="6 6"/>
<path d="M-741 598.507H2020" stroke="white" stroke-dasharray="6 6"/>
<path d="M-741 21.7698H2020" stroke="white" stroke-dasharray="6 6"/>
<path d="M-741 441.215H2020" stroke="white" stroke-dasharray="6 6"/>
<path d="M-741 808.23H2020" stroke="white" stroke-dasharray="6 6"/>
<path d="M-741 179.062H2020" stroke="white" stroke-dasharray="6 6"/>
<path d="M-741 546.077H2020" stroke="white" stroke-dasharray="6 6"/>
<path d="M-741 388.785H2020" stroke="white" stroke-dasharray="6 6"/>
<path d="M-741 755.799H2020" stroke="white" stroke-dasharray="6 6"/>
<path d="M-741 283.923H2020" stroke="white" stroke-dasharray="6 6"/>
<path d="M-741 650.938H2020" stroke="white" stroke-dasharray="6 6"/>
<path d="M-741 74.2005H2020" stroke="white" stroke-dasharray="6 6"/>
<path d="M-741 493.646H2020" stroke="white" stroke-dasharray="6 6"/>
</g>
</g>
</g>
</svg>
